<?xml version="1.0" encoding="UTF-8" standalone="no"?>
<!DOCTYPE svg PUBLIC "-//W3C//DTD SVG 1.1//EN" "http://www.w3.org/Graphics/SVG/1.1/DTD/svg11.dtd">
<svg width="100%" height="100%" viewBox="0 0 1604 176" version="1.1" xmlns="http://www.w3.org/2000/svg" xmlns:xlink="http://www.w3.org/1999/xlink" xml:space="preserve" xmlns:serif="http://www.serif.com/" style="fill-rule:evenodd;clip-rule:evenodd;stroke-linejoin:round;stroke-miterlimit:2;">
    <path d="M73.448,82.416C73.448,86.427 72.424,90.01 70.376,93.168C68.413,96.325 65.853,98.501 62.696,99.696C72.595,100.208 79.805,104.091 84.328,111.344C86.632,115.013 87.784,119.536 87.784,124.912C87.784,130.288 85.693,135.195 81.512,139.632C77.416,144.069 72.168,147.227 65.768,149.104C59.368,150.981 52.627,151.92 45.544,151.92C27.88,151.92 15.251,147.227 7.656,137.84C2.792,131.867 0.36,123.803 0.36,113.648C0.36,111.941 0.445,110.235 0.616,108.528L1.896,108.4C2.493,123.077 7.741,133.573 17.64,139.888L17.64,69.616C17.555,66.459 16.147,64.155 13.416,62.704C12.221,62.021 10.899,61.68 9.448,61.68L7.784,61.68L7.784,60.4L40.296,60.4C49.768,60.4 57.661,62.32 63.976,66.16C70.291,69.915 73.448,75.333 73.448,82.416ZM40.424,145.904C48.36,145.904 54.547,143.813 58.984,139.632C63.507,135.451 65.768,129.947 65.768,123.12C65.768,118.853 64.957,115.269 63.336,112.368C61.8,109.381 59.752,107.163 57.192,105.712C52.499,102.896 47.165,101.488 41.192,101.488L41.192,100.336C43.923,100.336 46.227,99.355 48.104,97.392C51.347,93.979 52.968,89.328 52.968,83.44C52.968,77.552 51.645,73.2 49,70.384C46.44,67.568 42.387,66.075 36.84,65.904L36.84,145.776C38.035,145.861 39.229,145.904 40.424,145.904Z" style="fill:rgb(142,27,35);fill-rule:nonzero;"/>
    <path d="M96.04,148.72C98.259,148.72 100.136,147.952 101.672,146.416C103.293,144.795 104.147,142.875 104.232,140.656L104.232,69.744C104.147,67.525 103.293,65.648 101.672,64.112C100.136,62.49 98.259,61.68 96.04,61.68L94.376,61.68L94.376,60.4L133.288,60.4L133.16,61.68L131.624,61.68C129.405,61.68 127.485,62.49 125.864,64.112C124.243,65.648 123.432,67.525 123.432,69.744L123.432,144.496L140.2,144.496C146.429,144.496 151.635,142.704 155.816,139.12C160.083,135.536 163.24,130.459 165.288,123.888L166.568,123.888L160.68,150L94.376,150L94.376,148.72L96.04,148.72Z" style="fill:rgb(142,27,35);fill-rule:nonzero;"/>
    <path d="M223.195,58.608C238.982,58.608 251.526,62.789 260.827,71.152C270.128,79.515 274.779,90.864 274.779,105.2C274.779,119.536 270.128,130.885 260.827,139.248C251.526,147.611 238.982,151.792 223.195,151.792C207.408,151.792 194.864,147.611 185.563,139.248C176.262,130.885 171.611,119.536 171.611,105.2C171.611,95.728 173.702,87.493 177.883,80.496C182.15,73.413 188.166,67.995 195.931,64.24C203.696,60.485 212.784,58.608 223.195,58.608ZM200.795,135.408C206.342,142.747 213.808,146.416 223.195,146.416C232.582,146.416 240.006,142.747 245.467,135.408C251.014,127.984 253.787,117.915 253.787,105.2C253.787,96.837 252.55,89.541 250.075,83.312C247.6,77.083 244.059,72.304 239.451,68.976C234.843,65.648 229.424,63.984 223.195,63.984C213.808,63.984 206.342,67.696 200.795,75.12C195.334,82.459 192.603,92.485 192.603,105.2C192.603,117.915 195.334,127.984 200.795,135.408Z" style="fill:rgb(142,27,35);fill-rule:nonzero;"/>
    <path d="M276.32,58.608C292.107,58.608 304.651,62.789 313.952,71.152C323.253,79.515 327.904,90.864 327.904,105.2C327.904,119.536 323.253,130.885 313.952,139.248C304.651,147.611 292.107,151.792 276.32,151.792C260.533,151.792 247.989,147.611 238.688,139.248C229.387,130.885 224.736,119.536 224.736,105.2C224.736,95.728 226.827,87.493 231.008,80.496C235.275,73.413 241.291,67.995 249.056,64.24C256.821,60.485 265.909,58.608 276.32,58.608ZM253.92,135.408C259.467,142.747 266.933,146.416 276.32,146.416C285.707,146.416 293.131,142.747 298.592,135.408C304.139,127.984 306.912,117.915 306.912,105.2C306.912,96.837 305.675,89.541 303.2,83.312C300.725,77.083 297.184,72.304 292.576,68.976C287.968,65.648 282.549,63.984 276.32,63.984C266.933,63.984 259.467,67.696 253.92,75.12C248.459,82.459 245.728,92.485 245.728,105.2C245.728,117.915 248.459,127.984 253.92,135.408Z" style="fill:rgb(142,27,35);fill-rule:nonzero;"/>
    <path d="M381.84,60.4C396.944,60.4 408.891,64.411 417.68,72.432C426.469,80.453 430.864,91.376 430.864,105.2C430.864,119.024 426.469,129.947 417.68,137.968C408.891,145.989 396.944,150 381.84,150L335.376,150L335.376,148.72L337.04,148.72C339.259,148.72 341.136,147.952 342.672,146.416C344.293,144.795 345.147,142.875 345.232,140.656L345.232,68.976C344.976,66.928 344.08,65.221 342.544,63.856C341.008,62.405 339.173,61.68 337.04,61.68L335.376,61.68L335.376,60.4L381.84,60.4ZM380.176,144.624C386.32,144.624 391.611,143.045 396.048,139.888C400.571,136.645 404.027,132.08 406.416,126.192C408.805,120.219 410,113.221 410,105.2C410,93.083 407.312,83.483 401.936,76.4C396.645,69.317 389.392,65.776 380.176,65.776L364.432,65.776L364.432,144.624L380.176,144.624Z" style="fill:rgb(142,27,35);fill-rule:nonzero;"/>
    <path d="M422.962,51.952C427.826,49.904 432.05,48.88 435.634,48.88C439.218,48.88 442.375,49.221 445.106,49.904C447.837,50.587 450.61,51.739 453.426,53.36C456.327,54.896 459.015,56.816 461.49,59.12C466.269,63.643 470.322,68.763 473.65,74.48L499.25,122.48L536.37,58.608L537.522,58.608L550.834,133.872C552.882,145.477 556.423,154.693 561.458,161.52C566.493,168.432 573.405,171.888 582.194,171.888L583.858,171.888L583.858,173.168C579.165,174.448 574.557,175.088 570.034,175.088C560.818,175.088 552.413,171.461 544.818,164.208C537.479,157.296 532.487,147.184 529.842,133.872L523.57,96.624L499.506,138.352C496.263,143.728 494.599,148.464 494.514,152.56L493.362,152.56L461.49,92.144L455.218,143.344C454.962,145.307 455.815,146.885 457.778,148.08C458.546,148.592 459.357,148.848 460.21,148.848L462.258,148.848L462.258,150L435.506,150L435.506,148.72L437.554,148.72C439.773,148.72 441.735,148.08 443.442,146.8C445.234,145.435 446.343,143.6 446.77,141.296L455.474,80.24C451.634,73.413 447.239,67.355 442.29,62.064C436.743,56.091 430.941,53.104 424.882,53.104C424.285,53.104 423.73,53.147 423.218,53.232L422.962,51.952Z" style="fill:rgb(142,27,35);fill-rule:nonzero;"/>
    <path d="M653.589,148.72L654.741,148.72L654.741,150L613.909,150L613.909,148.72L615.061,148.72C616.938,148.72 618.304,148.165 619.157,147.056C620.096,145.861 620.565,144.752 620.565,143.728C620.565,142.704 620.352,141.68 619.925,140.656L613.653,124.912L583.701,124.912L577.045,140.656C576.618,141.765 576.405,142.832 576.405,143.856C576.405,144.795 576.832,145.861 577.685,147.056C578.624,148.165 580.074,148.72 582.037,148.72L583.061,148.72L583.061,150L555.669,150L555.669,148.72L556.821,148.72C558.784,148.72 560.746,148.123 562.709,146.928C564.672,145.733 566.293,143.941 567.573,141.552L597.141,74.608C601.152,66.16 603.285,60.571 603.541,57.84L604.693,57.84L642.709,141.296C643.989,143.771 645.61,145.648 647.573,146.928C649.536,148.123 651.541,148.72 653.589,148.72ZM585.877,119.536L611.477,119.536L599.061,88.048L585.877,119.536Z" style="fill:rgb(142,27,35);fill-rule:nonzero;"/>
    <path d="M751.457,108.4L749.537,108.4C747.489,108.4 745.91,108.912 744.801,109.936C743.692,110.875 743.137,112.283 743.137,114.16L743.137,135.28C739.809,139.632 734.305,143.472 726.625,146.8C718.945,150.128 710.326,151.792 700.769,151.792C686.177,151.792 674.444,147.611 665.569,139.248C656.78,130.8 652.385,119.451 652.385,105.2C652.385,90.864 656.78,79.515 665.569,71.152C674.444,62.789 686.433,58.608 701.537,58.608C708.364,58.608 714.977,59.291 721.377,60.656C727.777,61.936 732.94,63.557 736.865,65.52L737.121,87.536L735.969,87.536C733.75,79.259 729.953,73.285 724.577,69.616C719.201,65.861 712.801,63.984 705.377,63.984C695.052,63.984 687.116,67.696 681.569,75.12C676.022,82.459 673.249,92.571 673.249,105.456C673.249,118.256 675.766,128.283 680.801,135.536C685.921,142.789 693.132,146.416 702.433,146.416C709.174,146.416 714.806,144.496 719.329,140.656C721.548,138.693 723.169,136.389 724.193,133.744L724.193,114.16C724.193,112.283 723.596,110.875 722.401,109.936C721.292,108.912 719.67,108.4 717.537,108.4L715.489,108.4L715.489,107.12L751.457,107.12L751.457,108.4Z" style="fill:rgb(142,27,35);fill-rule:nonzero;"/>
    <path d="M757.415,148.72C759.634,148.72 761.511,147.952 763.047,146.416C764.668,144.795 765.522,142.875 765.607,140.656L765.607,69.36C765.351,66.373 763.943,64.155 761.383,62.704C760.103,62.021 758.78,61.68 757.415,61.68L755.751,61.68L755.751,60.4L804.775,60.4C807.42,60.4 810.322,60.144 813.479,59.632C816.636,59.12 818.855,58.608 820.135,58.096L820.135,80.496L818.855,80.496L818.855,78.96C818.855,75.12 817.703,72.048 815.399,69.744C813.18,67.355 810.151,66.075 806.311,65.904L784.807,65.904L784.807,103.152L801.703,103.152C804.86,103.067 807.463,102 809.511,99.952C811.559,97.819 812.583,95.216 812.583,92.144L812.583,90.992L813.863,90.992L813.863,120.56L812.583,120.56L812.583,119.536C812.583,115.269 810.876,112.112 807.463,110.064C805.756,109.125 803.879,108.613 801.831,108.528L784.807,108.528L784.807,144.496L801.575,144.496C807.804,144.496 813.01,142.704 817.191,139.12C821.458,135.536 824.615,130.459 826.663,123.888L827.943,123.888L822.055,150L755.751,150L755.751,148.72L757.415,148.72Z" style="fill:rgb(142,27,35);fill-rule:nonzero;"/>
    <path d="M875.157,113.648C871.744,119.109 870.037,124.699 870.037,130.416C870.037,136.645 872.298,142.32 876.821,147.44C879.296,150.341 882.41,152.603 886.165,154.224C890.005,155.845 894.186,156.656 898.709,156.656C903.232,156.656 907.285,155.803 910.869,154.096C918.037,150.597 921.621,144.88 921.621,136.944C921.621,133.957 920.597,130.8 918.549,127.472C916.586,124.144 913.6,121.157 909.589,118.512L887.829,103.92C879.381,98.629 875.157,91.803 875.157,83.44C875.157,82.587 875.2,81.733 875.285,80.88C875.797,74.309 878.4,68.976 883.093,64.88C887.872,60.699 894.229,58.608 902.165,58.608C907.029,58.608 912.917,59.035 919.829,59.888L927.765,59.888L926.101,78.704L924.949,78.704C924.864,74.266 923.157,70.725 919.829,68.08C916.501,65.349 912.106,63.984 906.645,63.984C899.989,63.984 895.168,65.989 892.181,70C890.73,72.048 890.005,74.267 890.005,76.656C890.005,79.045 890.73,81.093 892.181,82.8C893.632,84.421 895.936,86.213 899.093,88.176L923.029,103.792C927.893,106.949 931.69,110.661 934.421,114.928C937.664,119.963 939.285,125.125 939.285,130.416C939.285,133.829 938.56,137.456 937.109,141.296C935.744,145.051 933.44,148.549 930.197,151.792C927.04,155.035 922.944,157.68 917.909,159.728C912.874,161.776 907.285,162.8 901.141,162.8C895.082,162.8 889.578,161.733 884.629,159.6C875.498,155.76 869.696,149.061 867.221,139.504C866.709,137.456 866.453,135.323 866.453,133.104C866.453,125.936 868.97,119.152 874.005,112.752L875.157,113.648Z" style="fill:rgb(142,27,35);fill-rule:nonzero;"/>
    <path d="M1095.31,65.904L1095.31,103.152L1112.2,103.152C1115.36,103.067 1117.96,102 1120.01,99.952C1122.06,97.904 1123.08,95.301 1123.08,92.144L1123.08,90.992L1124.36,90.992L1124.36,120.56L1123.08,120.56L1123.08,119.536C1123.08,116.379 1122.06,113.776 1120.01,111.728C1118.05,109.68 1115.49,108.613 1112.33,108.528L1095.31,108.528L1095.31,140.656C1095.31,143.813 1096.67,146.16 1099.4,147.696C1100.68,148.379 1102.05,148.72 1103.5,148.72L1105.04,148.72L1105.16,150L1066.25,150L1066.25,148.72L1067.92,148.72C1070.13,148.72 1072.01,147.952 1073.55,146.416C1075.17,144.795 1076.02,142.875 1076.11,140.656L1076.11,69.36C1075.94,67.227 1075.04,65.435 1073.42,63.984C1071.88,62.448 1070.05,61.68 1067.92,61.68L1066.25,61.68L1066.25,60.4L1115.28,60.4C1119.46,60.4 1122.91,60.101 1125.64,59.504C1128.37,58.821 1130.04,58.352 1130.64,58.096L1130.64,79.728L1129.36,79.728L1129.36,78.448C1129.36,74.693 1128.25,71.707 1126.03,69.488C1123.89,67.184 1120.95,65.989 1117.2,65.904L1095.31,65.904Z" style="fill:rgb(142,27,35);fill-rule:nonzero;"/>
    <path d="M1189.35,65.648L1189.35,140.784C1189.44,143.003 1190.25,144.88 1191.78,146.416C1193.41,147.952 1195.33,148.72 1197.54,148.72L1199.08,148.72L1199.21,150L1160.3,150L1160.3,148.72L1161.96,148.72C1164.09,148.72 1165.93,147.952 1167.46,146.416C1169.09,144.88 1169.98,143.045 1170.15,140.912L1170.15,65.648L1152.87,65.648C1148.95,65.733 1145.83,66.971 1143.53,69.36C1141.22,71.749 1140.07,74.864 1140.07,78.704L1140.07,80.24L1138.79,80.24L1138.79,57.968C1139.99,58.48 1142.12,58.992 1145.19,59.504C1148.35,60.016 1151.25,60.272 1153.9,60.272L1205.48,60.272C1209.66,60.187 1213.07,59.845 1215.72,59.248C1218.37,58.651 1219.99,58.224 1220.58,57.968L1220.58,80.24L1219.3,80.24L1219.3,78.704C1219.3,74.864 1218.15,71.749 1215.85,69.36C1213.54,66.971 1210.43,65.733 1206.5,65.648L1189.35,65.648Z" style="fill:rgb(142,27,35);fill-rule:nonzero;"/>
    <path d="M1355.75,61.68L1354.6,61.68C1352.47,61.68 1350.29,62.32 1348.07,63.6C1345.94,64.88 1344.4,66.715 1343.47,69.104L1321.96,138.096C1320.51,142.789 1319.79,147.141 1319.79,151.152L1319.79,152.304L1318.51,152.304L1290.6,90.48L1270.38,138.096C1268.41,143.045 1267.39,147.781 1267.31,152.304L1266.03,152.304L1235.43,69.104C1234.32,66.629 1232.75,64.795 1230.7,63.6C1228.65,62.32 1226.56,61.68 1224.43,61.68L1223.4,61.68L1223.4,60.4L1262.44,60.4L1262.44,61.68L1261.29,61.68C1259.5,61.68 1258.13,62.277 1257.19,63.472C1256.34,64.581 1255.91,65.648 1255.91,66.672C1255.91,67.696 1256.08,68.677 1256.43,69.616L1272.17,114.16L1295.34,58.352L1296.49,58.48L1321.96,114.672L1334.76,69.616C1335.02,68.677 1335.15,67.696 1335.15,66.672C1335.15,65.648 1334.72,64.581 1333.87,63.472C1333.1,62.277 1331.77,61.68 1329.9,61.68L1328.75,61.68L1328.75,60.4L1355.75,60.4L1355.75,61.68Z" style="fill:rgb(142,27,35);fill-rule:nonzero;"/>
    <path d="M1434.84,148.72L1435.99,148.72L1435.99,150L1395.16,150L1395.16,148.72L1396.31,148.72C1398.19,148.72 1399.55,148.165 1400.41,147.056C1401.35,145.861 1401.82,144.752 1401.82,143.728C1401.82,142.704 1401.6,141.68 1401.18,140.656L1394.9,124.912L1364.95,124.912L1358.3,140.656C1357.87,141.765 1357.66,142.832 1357.66,143.856C1357.66,144.795 1358.08,145.861 1358.94,147.056C1359.87,148.165 1361.32,148.72 1363.29,148.72L1364.31,148.72L1364.31,150L1336.92,150L1336.92,148.72L1338.07,148.72C1340.03,148.72 1342,148.123 1343.96,146.928C1345.92,145.733 1347.54,143.941 1348.82,141.552L1378.39,74.608C1382.4,66.16 1384.54,60.571 1384.79,57.84L1385.94,57.84L1423.96,141.296C1425.24,143.771 1426.86,145.648 1428.82,146.928C1430.79,148.123 1432.79,148.72 1434.84,148.72ZM1367.13,119.536L1392.73,119.536L1380.31,88.048L1367.13,119.536Z" style="fill:rgb(142,27,35);fill-rule:nonzero;"/>
    <path d="M1476.54,66.032L1466.82,66.032L1466.82,140.656C1466.9,143.813 1468.27,146.16 1470.91,147.696C1472.19,148.379 1473.56,148.72 1475.01,148.72L1476.67,148.72L1476.67,150L1437.76,150L1437.76,148.72L1439.42,148.72C1442.5,148.72 1444.84,147.397 1446.46,144.752C1447.15,143.557 1447.53,142.235 1447.62,140.784L1447.62,69.744C1447.53,67.525 1446.68,65.648 1445.06,64.112C1443.52,62.49 1441.64,61.68 1439.42,61.68L1437.76,61.68L1437.76,60.4L1481.66,60.4C1489.94,60.4 1496.94,62.192 1502.66,65.776C1505.56,67.568 1507.86,70.085 1509.57,73.328C1511.27,76.485 1512.13,80.112 1512.13,84.208C1512.13,88.219 1511.4,91.931 1509.95,95.344C1508.59,98.757 1506.24,101.744 1502.91,104.304C1499.67,106.864 1495.74,108.4 1491.14,108.912C1496.09,110.533 1500.44,114.288 1504.19,120.176C1513.41,134.939 1520.23,143.728 1524.67,146.544C1526.89,147.909 1529.66,148.635 1532.99,148.72L1532.99,150L1520.45,150C1513.19,150 1507.14,149.019 1502.27,147.056C1497.41,145.008 1493.44,141.552 1490.37,136.688C1488.83,134.213 1486.87,130.501 1484.48,125.552C1482.09,120.517 1480.51,116.933 1479.74,114.8C1477.44,109.68 1474.54,106.821 1471.04,106.224L1471.04,104.944L1475.01,104.944C1478.85,104.944 1482.22,103.792 1485.12,101.488C1488.11,99.184 1490.11,95.429 1491.14,90.224C1491.48,88.432 1491.65,87.024 1491.65,86C1491.65,79.003 1490.24,73.968 1487.42,70.896C1484.61,67.739 1480.98,66.117 1476.54,66.032Z" style="fill:rgb(142,27,35);fill-rule:nonzero;"/>
    <path d="M1533.04,148.72C1535.26,148.72 1537.14,147.952 1538.67,146.416C1540.29,144.795 1541.15,142.875 1541.23,140.656L1541.23,69.36C1540.98,66.373 1539.57,64.155 1537.01,62.704C1535.73,62.021 1534.41,61.68 1533.04,61.68L1531.38,61.68L1531.38,60.4L1580.4,60.4C1583.05,60.4 1585.95,60.144 1589.1,59.632C1592.26,59.12 1594.48,58.608 1595.76,58.096L1595.76,80.496L1594.48,80.496L1594.48,78.96C1594.48,75.12 1593.33,72.048 1591.02,69.744C1588.81,67.355 1585.78,66.075 1581.94,65.904L1560.43,65.904L1560.43,103.152L1577.33,103.152C1580.49,103.067 1583.09,102 1585.14,99.952C1587.18,97.819 1588.21,95.216 1588.21,92.144L1588.21,90.992L1589.49,90.992L1589.49,120.56L1588.21,120.56L1588.21,119.536C1588.21,115.269 1586.5,112.112 1583.09,110.064C1581.38,109.125 1579.5,108.613 1577.46,108.528L1560.43,108.528L1560.43,144.496L1577.2,144.496C1583.43,144.496 1588.63,142.704 1592.82,139.12C1597.08,135.536 1600.24,130.459 1602.29,123.888L1603.57,123.888L1597.68,150L1531.38,150L1531.38,148.72L1533.04,148.72Z" style="fill:rgb(142,27,35);fill-rule:nonzero;"/>
    <path d="M1016.4,65.292C1014.5,63.471 1010.53,60.408 1008.57,58.411C1009.56,58.371 1010.57,58.352 1011.61,58.352C1019.8,58.352 1027.57,60.443 1034.91,64.624C1044.55,70.085 1051.25,77.637 1055,87.28C1057.14,92.571 1058.2,98.245 1058.2,104.304C1058.2,118.555 1053.04,130.032 1042.72,138.736C1032.48,147.44 1019.08,151.792 1002.52,151.792C986.054,151.792 972.614,147.44 962.203,138.736C951.878,130.032 946.715,118.597 946.715,104.432C946.715,93.851 949.702,84.677 955.675,76.912C961.734,69.061 969.883,63.728 980.123,60.912L980.891,62.064C976.539,65.733 969.857,71.477 967.035,78.192C964.213,84.906 963.707,92.912 963.707,101.104C963.707,114.928 968.907,125.936 975.307,134.128C981.707,142.32 992.07,146.416 1002.4,146.416C1012.81,146.416 1021.17,142.576 1027.48,134.896C1033.88,127.131 1037.08,116.891 1037.08,104.176C1037.08,96.496 1035.89,89.584 1033.5,83.44C1031.2,77.211 1027.82,72.432 1023.39,69.104C1021.19,67.412 1018.85,66.146 1016.4,65.292Z" style="fill:rgb(142,27,35);"/>
    <path d="M1000.39,65.706C989.662,68.752 984.172,74.132 977.736,87.28L976.328,87.28C977.736,70.808 985.879,64.624 995.296,60.912C995.47,60.843 995.653,60.772 995.829,60.706C997.241,62.02 998.57,63.348 1000.39,65.706Z" style="fill:rgb(142,27,35);"/>
    <path d="M1005.21,37.567C1005.91,20.467 1005.23,11.33 991.444,0.297L990.72,1.58C999.416,11.555 996.857,19.143 993.759,25.339C989.928,33.001 982.529,37.538 985.52,48.439C987.667,56.267 1001.6,54.029 1011.52,83.586C1015.88,96.557 1016.72,109.219 1015.04,118.427C1013.33,127.788 1011.52,133.153 1000.74,135.927C1011.52,140.466 1019.62,133.716 1023.2,127.788C1030.4,115.866 1028.57,84.164 1020.2,72.512C1012.42,61.669 1001.81,60.636 999.416,44.097C998.694,39.106 1005.12,39.861 1005.21,37.567Z" style="fill:rgb(142,27,35);fill-rule:nonzero;"/>
    <path d="M1005.72,83.442C1007.71,87.518 1011.3,98.209 1011.3,104.566L1010.53,104.82C995.199,84.302 960.625,116.613 998.17,134.922C963.005,122.563 979.199,92.603 1005.72,83.442Z" style="fill:rgb(142,27,35);fill-rule:nonzero;"/>
    <path d="M997.565,128.173C995.261,127.515 986.931,113.445 999.132,115.188C992.601,116.625 992.984,124.22 998.345,126.198C1003.71,128.177 1006.28,126.082 1005.06,120.591C1012.9,128.173 1000.61,129.045 997.565,128.173Z" style="fill:rgb(142,27,35);fill-rule:nonzero;"/>
</svg>
