<?xml version="1.0" encoding="UTF-8" standalone="no"?>
<!DOCTYPE svg PUBLIC "-//W3C//DTD SVG 1.1//EN" "http://www.w3.org/Graphics/SVG/1.1/DTD/svg11.dtd">
<svg width="100%" height="100%" viewBox="0 0 6684 734" version="1.1" xmlns="http://www.w3.org/2000/svg" xmlns:xlink="http://www.w3.org/1999/xlink" xml:space="preserve" xmlns:serif="http://www.serif.com/" style="fill-rule:evenodd;clip-rule:evenodd;stroke-linejoin:round;stroke-miterlimit:2;">
    <path d="M306.034,343.4c-0,16.71 -4.267,31.644 -12.8,44.8c-8.178,13.155 -18.845,22.222 -32,27.2c41.244,2.133 71.289,18.313 90.133,48.533c9.6,15.288 14.4,34.134 14.4,56.534c0,22.4 -8.711,42.845 -26.133,61.333c-17.067,18.487 -38.934,31.646 -65.6,39.467c-26.667,7.82 -54.756,11.733 -84.267,11.733c-73.6,0 -126.222,-19.554 -157.867,-58.667c-20.266,-24.887 -30.4,-58.487 -30.4,-100.8c0,-7.112 0.356,-14.22 1.067,-21.333l5.333,-0.533c2.489,61.154 24.356,104.887 65.6,131.2l0,-292.801c-0.355,-13.156 -6.222,-22.756 -17.6,-28.8c-4.977,-2.844 -10.488,-4.266 -16.533,-4.266l-6.933,-0l-0,-5.334l135.466,0c39.467,0 72.356,8 98.667,24c26.311,15.645 39.467,38.222 39.467,67.734Zm-137.6,264.533c33.066,0 58.844,-8.712 77.333,-26.133c18.845,-17.421 28.267,-40.354 28.267,-68.8c-0,-17.779 -3.378,-32.712 -10.134,-44.8c-6.4,-12.446 -14.933,-21.687 -25.6,-27.733c-19.555,-11.734 -41.777,-17.6 -66.666,-17.6l-0,-4.8c11.378,-0 20.978,-4.089 28.8,-12.267c13.511,-14.223 20.266,-33.6 20.266,-58.134c0,-24.533 -5.511,-42.666 -16.533,-54.4c-10.667,-11.733 -27.555,-17.956 -50.667,-18.666l0,332.8c4.978,0.354 9.956,0.533 14.934,0.533Z" style="fill:#fff;fill-rule:nonzero;"/>
    <path d="M400.167,619.667c9.245,-0 17.066,-3.2 23.466,-9.6c6.755,-6.755 10.313,-14.755 10.667,-24l0,-295.467c-0.354,-9.245 -3.912,-17.067 -10.667,-23.467c-6.4,-6.756 -14.221,-10.133 -23.466,-10.133l-6.933,-0l-0,-5.334l162.133,0l-0.534,5.334l-6.4,-0c-9.246,-0 -17.246,3.377 -24,10.133c-6.754,6.4 -10.133,14.222 -10.133,23.467l0,311.467l69.867,-0c25.954,-0 47.645,-7.467 65.066,-22.4c17.779,-14.934 30.934,-36.088 39.467,-63.467l5.333,0l-24.533,108.8l-276.266,0l-0,-5.333l6.933,-0Z" style="fill:#fff;fill-rule:nonzero;"/>
    <path d="M929.979,244.2c65.779,-0 118.046,17.422 156.8,52.266c38.754,34.844 58.134,82.134 58.134,141.867c-0,59.734 -19.38,107.021 -58.134,141.867c-38.754,34.846 -91.021,52.267 -156.8,52.267c-65.779,-0 -118.046,-17.421 -156.8,-52.267c-38.754,-34.846 -58.133,-82.133 -58.133,-141.867c-0,-39.467 8.712,-73.778 26.133,-102.933c17.779,-29.512 42.846,-52.09 75.2,-67.734c32.354,-15.644 70.221,-23.466 113.6,-23.466Zm-93.333,320c23.112,30.579 54.221,45.867 93.333,45.867c39.113,-0 70.046,-15.288 92.8,-45.867c23.113,-30.933 34.667,-72.887 34.667,-125.867c-0,-34.845 -5.154,-65.245 -15.467,-91.2c-10.312,-25.956 -25.067,-45.867 -44.266,-59.733c-19.201,-13.867 -41.78,-20.8 -67.734,-20.8c-39.112,-0 -70.221,15.466 -93.333,46.4c-22.754,30.577 -34.134,72.355 -34.134,125.333c0,52.98 11.38,94.934 34.134,125.867Z" style="fill:#fff;fill-rule:nonzero;"/>
    <path d="M1151.33,244.2c65.78,-0 118.046,17.422 156.8,52.266c38.755,34.844 58.134,82.134 58.134,141.867c-0,59.734 -19.38,107.021 -58.134,141.867c-38.754,34.846 -91.02,52.267 -156.8,52.267c-65.779,-0 -118.045,-17.421 -156.8,-52.267c-38.754,-34.846 -58.133,-82.133 -58.133,-141.867c-0,-39.467 8.712,-73.778 26.133,-102.933c17.779,-29.512 42.846,-52.09 75.2,-67.734c32.354,-15.644 70.221,-23.466 113.6,-23.466Zm-93.333,320c23.112,30.579 54.221,45.867 93.333,45.867c39.113,-0 70.046,-15.288 92.8,-45.867c23.113,-30.933 34.667,-72.887 34.667,-125.867c0,-34.845 -5.154,-65.245 -15.467,-91.2c-10.312,-25.956 -25.066,-45.867 -44.266,-59.733c-19.2,-13.867 -41.779,-20.8 -67.734,-20.8c-39.112,-0 -70.22,15.466 -93.333,46.4c-22.754,30.577 -34.133,72.355 -34.133,125.333c-0,52.98 11.379,94.934 34.133,125.867Z" style="fill:#fff;fill-rule:nonzero;"/>
    <path d="M1591,251.666c62.933,0 112.713,16.711 149.333,50.134c36.621,33.422 54.934,78.933 54.934,136.533c-0,57.6 -18.313,103.113 -54.934,136.534c-36.62,33.421 -86.4,50.133 -149.333,50.133l-193.6,0l0,-5.333l6.933,-0c9.246,-0 17.067,-3.2 23.467,-9.6c6.754,-6.755 10.312,-14.755 10.667,-24l-0,-298.667c-1.067,-8.534 -4.8,-15.645 -11.2,-21.334c-6.4,-6.044 -14.046,-9.066 -22.934,-9.066l-6.933,-0l0,-5.334l193.6,0Zm-6.933,350.934c25.6,0 47.646,-6.579 66.133,-19.733c18.846,-13.513 33.246,-32.534 43.2,-57.067c9.954,-24.888 14.933,-54.046 14.933,-87.467c0,-50.489 -11.2,-90.489 -33.6,-120c-22.046,-29.511 -52.266,-44.267 -90.666,-44.267l-65.6,0l-0,328.534l65.6,-0Z" style="fill:#fff;fill-rule:nonzero;"/>
    <path d="M1762.34,216.466c20.266,-8.533 37.866,-12.8 52.8,-12.8c14.933,0 28.087,1.422 39.466,4.267c11.38,2.844 22.934,7.644 34.667,14.4c12.088,6.4 23.288,14.4 33.6,24c19.913,18.844 36.8,40.178 50.667,64l106.666,200l154.667,-266.133l4.8,-0l55.467,313.6c8.533,48.354 23.287,86.754 44.266,115.2c20.98,28.8 49.78,43.2 86.4,43.2l6.934,0l-0,5.333c-19.555,5.334 -38.755,8 -57.6,8c-38.4,0 -73.421,-15.112 -105.067,-45.333c-30.579,-28.8 -51.379,-70.933 -62.4,-126.4l-26.133,-155.2l-100.267,173.867c-13.513,22.4 -20.446,42.133 -20.8,59.2l-4.8,-0l-132.8,-251.734l-26.133,213.334c-1.067,8.179 2.487,14.754 10.666,19.733c3.2,2.133 6.58,3.2 10.134,3.2l8.533,0l0,4.8l-111.467,0l0,-5.333l8.534,-0c9.246,-0 17.421,-2.667 24.533,-8c7.467,-5.688 12.088,-13.334 13.867,-22.934l36.266,-254.4c-16,-28.445 -34.312,-53.689 -54.933,-75.733c-23.112,-24.89 -47.287,-37.334 -72.533,-37.334c-2.488,0 -4.8,0.178 -6.934,0.534l-1.066,-5.334Z" style="fill:#fff;fill-rule:nonzero;"/>
    <path d="M2723.29,619.667l4.8,-0l-0.001,5.333l-170.133,0l0,-5.333l4.8,-0c7.821,-0 13.513,-2.313 17.067,-6.934c3.912,-4.979 5.867,-9.6 5.867,-13.866c-0.001,-4.267 -0.888,-8.534 -2.667,-12.8l-26.134,-65.6l-124.8,-0l-27.733,65.6c-1.779,4.62 -2.667,9.066 -2.667,13.333c0,3.912 1.78,8.354 5.334,13.333c3.912,4.621 9.954,6.934 18.133,6.934l4.267,-0l-0,5.333l-114.133,0l-0.001,-5.333l4.801,-0c8.179,-0 16.354,-2.488 24.533,-7.467c8.179,-4.979 14.933,-12.446 20.267,-22.4l123.2,-278.934c16.712,-35.2 25.6,-58.489 26.666,-69.866l4.8,-0l158.4,347.733c5.334,10.313 12.088,18.134 20.267,23.467c8.179,4.979 16.533,7.467 25.067,7.467Zm-282.134,-121.6l106.667,-0l-51.733,-131.201l-54.934,131.201Z" style="fill:#fff;fill-rule:nonzero;"/>
    <path d="M3131.07,451.667l-8,-0c-8.533,-0 -15.113,2.133 -19.733,6.4c-4.621,3.912 -6.934,9.779 -6.934,17.6l0,88c-13.866,18.133 -36.8,34.133 -68.8,48c-32,13.866 -67.912,20.8 -107.733,20.8c-60.8,-0 -109.688,-17.421 -146.667,-52.267c-36.621,-35.2 -54.933,-82.487 -54.933,-141.867c-0,-59.733 18.312,-107.023 54.933,-141.867c36.979,-34.844 86.934,-52.266 149.867,-52.266c28.446,-0 56,2.844 82.667,8.533c26.666,5.333 48.179,12.089 64.533,20.267l1.067,91.733l-4.8,-0c-9.246,-34.489 -25.067,-59.378 -47.467,-74.667c-22.4,-15.644 -49.067,-23.466 -80,-23.466c-43.021,-0 -76.088,15.466 -99.2,46.4c-23.113,30.577 -34.667,72.71 -34.667,126.4c0,53.333 10.488,95.112 31.467,125.333c21.333,30.221 51.379,45.334 90.133,45.334c28.088,-0 51.554,-8 70.4,-24c9.246,-8.179 16,-17.779 20.267,-28.8l-0,-81.6c-0,-7.821 -2.488,-13.688 -7.467,-17.6c-4.621,-4.267 -11.379,-6.4 -20.266,-6.4l-8.534,-0l0,-5.334l149.867,0l-0,5.334Z" style="fill:#fff;fill-rule:nonzero;"/>
    <path d="M3155.9,619.667c9.246,-0 17.066,-3.2 23.466,-9.6c6.755,-6.755 10.313,-14.755 10.667,-24l0,-297.067c-1.066,-12.445 -6.933,-21.69 -17.6,-27.734c-5.333,-2.844 -10.846,-4.266 -16.533,-4.266l-6.934,-0l0.001,-5.334l204.266,0c11.021,0 23.113,-1.066 36.267,-3.2c13.154,-2.133 22.4,-4.266 27.733,-6.4l0,93.334l-5.333,-0l-0,-6.4c-0,-16 -4.8,-28.8 -14.4,-38.4c-9.246,-9.956 -21.867,-15.29 -37.867,-16l-89.6,-0l0,155.2l70.4,-0c13.154,-0.354 24,-4.8 32.534,-13.334c8.533,-8.889 12.8,-19.733 12.8,-32.533l-0.001,-4.8l5.334,-0l-0,123.2l-5.333,0l-0,-4.266c-0,-17.779 -7.113,-30.934 -21.334,-39.467c-7.112,-3.912 -14.933,-6.046 -23.466,-6.4l-70.934,0l0,149.867l69.867,-0c25.954,-0 47.646,-7.467 65.067,-22.4c17.779,-14.934 30.933,-36.088 39.466,-63.467l5.334,0l-24.534,108.8l-276.266,0l-0,-5.333l6.933,-0Z" style="fill:#fff;fill-rule:nonzero;"/>
    <path d="M3646.49,473.533c-14.221,22.755 -21.334,46.046 -21.334,69.867c0,25.954 9.421,49.6 28.267,70.933c10.312,12.088 23.287,21.513 38.933,28.267c16,6.754 33.421,10.133 52.267,10.133c18.846,0 35.733,-3.554 50.667,-10.666c29.866,-14.579 44.8,-38.4 44.8,-71.467c-0.001,-12.446 -4.267,-25.6 -12.8,-39.467c-8.18,-13.866 -20.621,-26.312 -37.334,-37.333l-90.667,-60.8c-35.2,-22.045 -52.799,-50.49 -52.799,-85.334c-0,-3.556 0.179,-7.111 0.533,-10.666c2.133,-27.378 12.979,-49.6 32.533,-66.667c19.913,-17.423 46.4,-26.133 79.467,-26.133c20.267,-0 44.8,1.777 73.6,5.333l33.066,-0l-6.933,78.4l-4.8,-0c-0.354,-18.489 -7.466,-33.245 -21.333,-44.267c-13.867,-11.378 -32.179,-17.066 -54.933,-17.066c-27.734,-0 -47.821,8.355 -60.267,25.066c-6.046,8.534 -9.067,17.778 -9.067,27.734c0,9.955 3.021,18.488 9.067,25.6c6.046,6.755 15.646,14.222 28.8,22.4l99.733,65.067c20.267,13.154 36.088,28.62 47.467,46.4c13.512,20.979 20.266,42.487 20.266,64.533c0,14.221 -3.02,29.333 -9.066,45.333c-5.688,15.646 -15.288,30.221 -28.8,43.734c-13.154,13.512 -30.221,24.533 -51.2,33.066c-20.979,8.534 -44.267,12.8 -69.867,12.8c-25.246,0 -48.179,-4.446 -68.8,-13.333c-38.046,-16 -62.221,-43.913 -72.533,-83.733c-2.134,-8.534 -3.2,-17.421 -3.2,-26.667c-0,-29.867 10.487,-58.133 31.466,-84.8l4.801,3.733Z" style="fill:#fff;fill-rule:nonzero;"/>
    <path d="M4563.79,274.6l-0,155.2l70.375,-0c13.166,-0.354 24,-4.8 32.541,-13.334c8.542,-8.533 12.792,-19.378 12.792,-32.533l-0,-4.8l5.333,-0l0,123.2l-5.333,0l-0,-4.266c-0,-13.154 -4.25,-24 -12.792,-32.534c-8.166,-8.533 -18.833,-12.979 -32,-13.333l-70.916,0l-0,133.867c-0,13.154 5.666,22.933 17.041,29.333c5.334,2.846 11.042,4.267 17.084,4.267l6.416,-0l0.5,5.333l-162.125,0l0,-5.333l6.959,-0c9.208,-0 17.041,-3.2 23.458,-9.6c6.75,-6.755 10.292,-14.755 10.667,-24l-0,-297.067c-0.709,-8.89 -4.459,-16.356 -11.209,-22.4c-6.416,-6.4 -14.041,-9.6 -22.916,-9.6l-6.959,-0l0,-5.334l204.292,0c17.417,0 31.792,-1.244 43.167,-3.733c11.375,-2.845 18.333,-4.8 20.833,-5.867l0,90.134l-5.333,-0l-0,-5.334c-0,-15.644 -4.625,-28.089 -13.875,-37.333c-8.917,-9.6 -21.167,-14.578 -36.792,-14.933l-91.208,-0Z" style="fill:#fff;fill-rule:nonzero;"/>
    <path d="M4955.62,273.533l0,313.067c0.375,9.246 3.75,17.067 10.125,23.467c6.792,6.4 14.792,9.6 24,9.6l6.417,-0l0.541,5.333l-162.125,0l0,-5.333l6.917,-0c8.875,-0 16.542,-3.2 22.917,-9.6c6.791,-6.4 10.5,-14.046 11.208,-22.934l0,-313.6l-72,-0c-16.333,0.355 -29.333,5.511 -38.917,15.467c-9.625,9.955 -14.416,22.933 -14.416,38.933l-0,6.4l-5.334,-0l0,-92.8c5,2.133 13.875,4.267 26.667,6.4c13.167,2.133 25.25,3.2 36.292,3.2l214.916,-0c17.417,-0.356 31.625,-1.778 42.667,-4.267c11.042,-2.489 17.792,-4.266 20.25,-5.333l-0,92.8l-5.333,-0l-0,-6.4c-0,-16 -4.792,-28.978 -14.375,-38.933c-9.625,-9.956 -22.584,-15.112 -38.959,-15.467l-71.458,-0Z" style="fill:#fff;fill-rule:nonzero;"/>
    <path d="M5648.96,257l-4.791,-0c-8.875,-0 -17.959,2.666 -27.209,8c-8.875,5.333 -15.291,12.977 -19.166,22.933l-89.625,287.467c-6.042,19.554 -9.042,37.688 -9.042,54.4l0,4.8l-5.333,0l-116.292,-257.6l-84.25,198.4c-8.208,20.621 -12.458,40.354 -12.792,59.2l-5.333,0l-127.5,-346.667c-4.625,-10.311 -11.167,-17.955 -19.708,-22.933c-8.542,-5.334 -17.25,-8 -26.125,-8l-4.292,-0l0,-5.334l162.667,0l-0,5.334l-4.792,-0c-7.458,-0 -13.167,2.488 -17.083,7.466c-3.542,4.622 -5.334,9.067 -5.334,13.334c0,4.266 0.709,8.355 2.167,12.266l65.583,185.601l96.542,-232.534l4.792,0.533l106.125,234.134l53.333,-187.734c1.083,-3.911 1.625,-8 1.625,-12.266c0,-4.267 -1.792,-8.712 -5.333,-13.334c-3.209,-4.978 -8.75,-7.466 -16.542,-7.466l-4.792,-0l0,-5.334l112.5,0l0,5.334Z" style="fill:#fff;fill-rule:nonzero;"/>
    <path d="M5978.5,619.667l4.792,-0l-0,5.333l-170.125,0l-0,-5.333l4.791,-0c7.834,-0 13.5,-2.313 17.084,-6.934c3.916,-4.979 5.875,-9.6 5.875,-13.866c-0,-4.267 -0.917,-8.534 -2.667,-12.8l-26.167,-65.6l-124.791,-0l-27.709,65.6c-1.791,4.62 -2.666,9.066 -2.666,13.333c-0,3.912 1.75,8.354 5.333,13.333c3.875,4.621 9.917,6.934 18.125,6.934l4.25,-0l0,5.333l-114.125,0l0,-5.333l4.792,-0c8.166,-0 16.375,-2.488 24.541,-7.467c8.167,-4.979 14.917,-12.446 20.25,-22.4l123.209,-278.934c16.708,-35.2 25.625,-58.489 26.666,-69.866l4.792,-0l158.417,347.733c5.333,10.313 12.083,18.134 20.25,23.467c8.208,4.979 16.541,7.467 25.083,7.467Zm-282.125,-121.6l106.667,-0l-51.75,-131.201l-54.917,131.201Z" style="fill:#fff;fill-rule:nonzero;"/>
    <path d="M6152.25,275.133l-40.5,-0l0,310.934c0.333,13.154 6.042,22.933 17.042,29.333c5.333,2.846 11.041,4.267 17.083,4.267l6.917,-0l-0,5.333l-162.125,0l-0,-5.333l6.916,-0c12.834,-0 22.584,-5.513 29.334,-16.534c2.875,-4.979 4.458,-10.487 4.833,-16.533l0,-296c-0.375,-9.245 -3.917,-17.067 -10.667,-23.467c-6.416,-6.756 -14.25,-10.133 -23.5,-10.133l-6.916,-0l-0,-5.334l182.916,0c34.5,0 63.667,7.467 87.5,22.4c12.084,7.467 21.667,17.956 28.792,31.467c7.083,13.155 10.667,28.267 10.667,45.333c-0,16.712 -3.042,32.178 -9.084,46.4c-5.666,14.222 -15.458,26.667 -29.333,37.334c-13.5,10.667 -29.875,17.067 -49.042,19.2c20.625,6.754 38.75,22.4 54.375,46.933c38.417,61.513 66.834,98.134 85.334,109.867c9.25,5.688 20.791,8.713 34.666,9.067l0,5.333l-52.25,0c-30.25,0 -55.458,-4.087 -75.75,-12.267c-20.25,-8.533 -36.791,-22.933 -49.583,-43.2c-6.417,-10.312 -14.583,-25.779 -24.542,-46.4c-9.958,-20.979 -16.541,-35.912 -19.75,-44.8c-9.583,-21.333 -21.666,-33.245 -36.25,-35.733l0,-5.333l16.542,-0c16,-0 30.042,-4.8 42.125,-14.4c12.458,-9.601 20.792,-25.245 25.083,-46.934c1.417,-7.467 2.125,-13.333 2.125,-17.6c0,-29.155 -5.875,-50.133 -17.625,-62.933c-11.708,-13.156 -26.833,-19.912 -45.333,-20.267Z" style="fill:#fff;fill-rule:nonzero;"/>
    <path d="M6387.67,619.667c9.25,-0 17.083,-3.2 23.458,-9.6c6.75,-6.755 10.333,-14.755 10.667,-24l-0,-297.067c-1.042,-12.445 -6.917,-21.69 -17.584,-27.734c-5.333,-2.844 -10.833,-4.266 -16.541,-4.266l-6.917,-0l0,-5.334l204.25,0c11.042,0 23.125,-1.066 36.25,-3.2c13.167,-2.133 22.417,-4.266 27.75,-6.4l0,93.334l-5.333,-0l-0,-6.4c-0,-16 -4.792,-28.8 -14.417,-38.4c-9.208,-9.956 -21.833,-15.29 -37.833,-16l-89.625,-0l-0,155.2l70.416,-0c13.167,-0.354 24,-4.8 32.542,-13.334c8.5,-8.889 12.792,-19.733 12.792,-32.533l-0,-4.8l5.333,-0l0,123.2l-5.333,0l-0,-4.266c-0,-17.779 -7.125,-30.934 -21.334,-39.467c-7.125,-3.912 -14.958,-6.046 -23.458,-6.4l-70.958,0l-0,149.867l69.875,-0c25.958,-0 47.625,-7.467 65.083,-22.4c17.75,-14.934 30.917,-36.088 39.458,-63.467l5.334,0l-24.542,108.8l-276.25,0l0,-5.333l6.917,-0Z" style="fill:#fff;fill-rule:nonzero;"/>
    <path d="M4247.49,275.941c-8.52,-7.468 -24.156,-22.056 -32.356,-30.374c4.125,-0.169 66.409,6.277 96.992,23.699c40.167,22.756 68.083,54.222 83.708,94.4c8.917,22.044 13.334,45.689 13.334,70.934c-0,59.379 -21.5,107.2 -64.5,143.467c-42.667,36.266 -98.5,54.4 -167.5,54.4c-68.609,-0 -124.609,-18.134 -167.988,-54.4c-43.021,-36.267 -64.533,-83.913 -64.533,-142.934c-0,-44.089 12.446,-82.311 37.333,-114.667c25.246,-32.711 59.2,-54.933 101.867,-66.666l3.2,4.8c-18.134,15.288 -45.975,39.223 -57.734,67.2c-11.758,27.977 -13.866,61.333 -13.866,95.467c-0,57.6 21.666,103.466 48.333,137.6c26.667,34.133 69.846,51.2 112.888,51.2c43.375,-0 78.208,-16 104.5,-48c26.666,-32.354 40,-75.021 40,-128c-0,-32.001 -4.959,-60.801 -14.917,-86.401c-9.583,-25.956 -23.667,-45.866 -42.125,-59.733c-9.171,-7.051 -10.452,-8.341 -16.636,-11.992Z" style="fill:#fff;"/>
    <path d="M4160.13,278.077c-44.698,12.689 -59.414,30.807 -86.23,85.589l-5.867,0c5.867,-68.633 37.452,-95.209 73.799,-106.924c5.886,5.474 12.192,11.796 18.298,21.335Z" style="fill:#fff;"/>
    <path d="M4188.38,156.527c2.917,-71.247 0.083,-109.32 -57.358,-155.289l-3.017,5.345c36.233,41.562 25.571,73.178 12.663,98.997c-15.963,31.925 -46.792,50.827 -34.33,96.249c8.946,32.616 67,23.293 108.334,146.445c18.166,54.046 21.666,106.805 14.666,145.172c-7.125,39.004 -14.666,61.358 -59.583,72.916c44.917,18.913 78.667,-9.212 93.583,-33.912c30,-49.675 22.375,-181.768 -12.5,-230.316c-32.416,-45.18 -76.625,-49.484 -86.6,-118.396c-3.008,-20.796 23.767,-17.65 24.142,-27.211Z" style="fill:#fff;fill-rule:nonzero;"/>
    <path d="M4190.5,347.675c8.292,16.981 23.25,61.53 23.25,88.017l-3.208,1.058c-63.88,-85.492 -207.938,49.138 -51.5,125.425c-146.521,-51.496 -79.046,-176.329 31.458,-214.5Z" style="fill:#fff;fill-rule:nonzero;"/>
    <path d="M4156.52,534.054c-9.6,-2.741 -44.308,-61.366 6.529,-54.104c-27.212,5.988 -25.617,37.633 -3.279,45.875c22.354,8.246 33.062,-0.483 27.979,-23.363c32.667,31.592 -18.542,35.225 -31.229,31.592Z" style="fill:#fff;fill-rule:nonzero;"/>
</svg>
