<svg width="377" height="84" viewBox="0 0 377 84" fill="none" xmlns="http://www.w3.org/2000/svg">
<g clip-path="url(#clip0_557_254)">
<path d="M51.9576 61.9901C48.616 61.9901 45.5902 61.2403 42.8801 59.7405C40.17 58.2144 38.0125 56.0437 36.4075 53.2284C34.8025 50.3868 34 46.9926 34 43.0459C34 39.0992 34.7499 35.7181 36.2496 32.9028C37.7757 30.0875 39.8543 27.9299 42.4854 26.4302C45.1166 24.9041 48.1293 24.1411 51.5234 24.1411C55.3386 24.1411 58.3907 24.9041 60.6798 26.4302C62.9689 27.9299 64.6134 29.9165 65.6132 32.3897C66.6394 34.863 67.1524 38.2531 67.1524 41.121H39.3281V38.9808H58.7854C58.7854 37.6389 58.7065 36.2049 58.5486 34.6788C58.417 33.1265 58.1145 31.6662 57.6409 30.298C57.1672 28.9035 56.4437 27.7721 55.4702 26.9038C54.4966 26.0092 53.1811 25.5619 51.5234 25.5619C49.629 25.5619 48.0635 26.0355 46.8268 26.9827C45.6165 27.9299 44.6693 29.2324 43.9852 30.89C43.3274 32.5476 42.8538 34.4289 42.5644 36.5338C42.3013 38.6124 42.1697 40.7831 42.1697 43.0459C42.1697 45.3087 42.3144 47.4794 42.6038 49.558C42.9196 51.6366 43.4458 53.4915 44.1825 55.1228C44.9456 56.7542 45.9849 58.0434 47.3004 58.9906C48.6423 59.9378 50.3394 60.4114 52.3917 60.4114C55.9701 60.4114 58.8906 59.5037 61.1534 57.6882C63.4425 55.8727 65.0738 53.5836 66.0474 50.8209H67.705C66.6788 54.0309 64.8765 56.7015 62.298 58.8328C59.7195 60.9377 56.2727 61.9901 51.9576 61.9901Z" fill="#BF8F3C"/>
<path d="M86.2102 24.891V59.7405H91.262V61.2008H74.1332V59.7405H79.3034V26.3513H74.1332V24.891H86.2102ZM110.285 35.9813V59.7405H115.416V61.2008H98.2082V59.7405H103.339V37.1653C103.339 34.9551 103.234 33.0081 103.023 31.3241C102.839 29.6139 102.405 28.2852 101.721 27.3379C101.037 26.3907 99.9711 25.9171 98.5239 25.9171C96.3401 25.9171 94.4588 26.5091 92.8801 27.6931C91.3277 28.8508 90.0648 30.3374 89.0913 32.1529C88.1177 33.9684 87.3942 35.8892 86.9206 37.9151C86.447 39.9148 86.2102 41.7698 86.2102 43.48L85.263 43.7168C85.263 41.954 85.4866 39.9674 85.9339 37.7573C86.3812 35.5208 87.1311 33.3764 88.1835 31.3241C89.2623 29.2455 90.7094 27.5353 92.5249 26.1934C94.3667 24.8252 96.6953 24.1411 99.5106 24.1411C102.563 24.1411 104.852 24.6542 106.378 25.6803C107.93 26.6802 108.97 28.0747 109.496 29.8638C110.022 31.653 110.285 33.6922 110.285 35.9813Z" fill="#BF8F3C"/>
<path d="M182.173 2C188.04 2 193.092 3.30242 197.328 5.90726C201.564 8.48578 204.827 12.0115 207.116 16.4845C209.431 20.9574 210.589 25.9961 210.589 31.6004C210.589 35.8102 209.905 39.7175 208.537 43.3222C207.169 46.9005 205.222 50.0316 202.696 52.7153C200.17 55.3991 197.17 57.4909 193.697 58.9906C190.224 60.4641 186.383 61.2008 182.173 61.2008H160.071V59.7405H167.175V3.46029H160.071V2H182.173ZM174.714 59.7405H182.173C185.804 59.7405 188.856 58.9643 191.329 57.4119C193.802 55.8596 195.789 53.7546 197.289 51.0972C198.788 48.4134 199.867 45.3876 200.525 42.0197C201.183 38.6519 201.512 35.1788 201.512 31.6004C201.512 28.022 201.143 24.5489 200.407 21.1811C199.67 17.8132 198.525 14.8005 196.973 12.1431C195.447 9.4593 193.46 7.34123 191.013 5.78885C188.566 4.23648 185.62 3.46029 182.173 3.46029H174.714V59.7405Z" fill="#BF8F3C"/>
<path d="M227.61 26.3513L240.91 53.9783L237.122 62.74L219.717 26.3513H216.086V24.891H233.846V26.3513H227.61ZM257.526 24.891V26.3513H253.027L231.754 76.8298C231.044 78.4348 230.281 79.6977 229.465 80.6186C228.649 81.5395 227.492 82 225.992 82C225.334 82 224.663 81.8553 223.979 81.5659C223.295 81.2764 222.716 80.816 222.242 80.1845C221.769 79.5793 221.532 78.7768 221.532 77.777C221.532 76.9087 221.716 76.1457 222.085 75.4879C222.479 74.8301 223.006 74.3171 223.663 73.9487C224.321 73.5803 225.071 73.3962 225.913 73.3962C226.571 73.3962 227.189 73.5409 227.768 73.8303C228.347 74.1197 228.833 74.5144 229.228 75.0143C229.649 75.5142 229.912 76.0931 230.018 76.7509L251.29 26.3513H245.015V24.891H257.526Z" fill="#BF8F3C"/>
<path d="M272.908 24.891V59.7405H277.96V61.2008H260.832V59.7405H266.002V26.3513H260.832V24.891H272.908ZM296.983 35.9813V59.7405H302.114V61.2008H284.907V59.7405H290.037V37.1653C290.037 34.9551 289.932 33.0081 289.722 31.3241C289.537 29.6139 289.103 28.2852 288.419 27.3379C287.735 26.3907 286.669 25.9171 285.222 25.9171C283.038 25.9171 281.157 26.5091 279.578 27.6931C278.026 28.8508 276.763 30.3374 275.79 32.1529C274.816 33.9684 274.093 35.8892 273.619 37.9151C273.145 39.9148 272.908 41.7698 272.908 43.48L271.961 43.7168C271.961 41.954 272.185 39.9674 272.632 37.7573C273.079 35.5208 273.829 33.3764 274.882 31.3241C275.961 29.2455 277.408 27.5353 279.223 26.1934C281.065 24.8252 283.394 24.1411 286.209 24.1411C289.261 24.1411 291.55 24.6542 293.076 25.6803C294.629 26.6802 295.668 28.0747 296.194 29.8638C296.72 31.653 296.983 33.6922 296.983 35.9813Z" fill="#BF8F3C"/>
<path d="M326.917 61.9901C323.576 61.9901 320.55 61.2403 317.84 59.7405C315.13 58.2144 312.972 56.0437 311.367 53.2284C309.762 50.3868 308.96 46.9926 308.96 43.0459C308.96 39.0992 309.71 35.7181 311.21 32.9028C312.736 30.0875 314.814 27.9299 317.445 26.4302C320.077 24.9041 323.089 24.1411 326.483 24.1411C330.299 24.1411 333.351 24.9041 335.64 26.4302C337.929 27.9299 339.573 29.9165 340.573 32.3897C341.599 34.863 342.112 38.2337 342.112 41.1016H314.288V38.9808H333.745C333.745 37.6389 333.666 36.2049 333.509 34.6788C333.377 33.1265 333.074 31.6662 332.601 30.298C332.127 28.9035 331.404 27.7721 330.43 26.9038C329.457 26.0092 328.141 25.5619 326.483 25.5619C324.589 25.5619 323.023 26.0355 321.787 26.9827C320.576 27.9299 319.629 29.2324 318.945 30.89C318.287 32.5476 317.814 34.4289 317.524 36.5338C317.261 38.6124 317.13 40.7831 317.13 43.0459C317.13 45.3087 317.274 47.4794 317.564 49.558C317.879 51.6366 318.406 53.4915 319.142 55.1228C319.905 56.7542 320.945 58.0434 322.26 58.9906C323.602 59.9378 325.299 60.4114 327.352 60.4114C330.93 60.4114 333.851 59.5037 336.113 57.6882C338.402 55.8727 340.034 53.5836 341.007 50.8209H342.665C341.639 54.0309 339.836 56.7015 337.258 58.8328C334.679 60.9377 331.233 61.9901 326.917 61.9901Z" fill="#BF8F3C"/>
<path d="M157.135 27.2365V25.7762H143.637V27.2365H150.741L139.809 53.9952L129.547 27.2365H136.217V25.7762H117.273V27.2365H121.693L136.336 62.8753L142.279 77.1454C142.991 78.6524 143.755 79.8383 144.572 80.7029C145.388 81.5676 146.548 82 148.049 82C148.708 82 149.38 81.8641 150.065 81.5924C150.75 81.3206 151.33 80.8882 151.804 80.2953C152.278 79.7271 152.515 78.9736 152.515 78.0347C152.515 77.2195 152.331 76.503 151.962 75.8854C151.567 75.2677 151.04 74.786 150.381 74.4401C149.722 74.0942 148.972 73.9213 148.128 73.9213C147.47 73.9213 146.851 74.0571 146.271 74.3289C145.691 74.6007 145.204 74.9713 144.809 75.4407C144.572 75.7223 144.292 76.097 144.157 76.6186L138.17 62.2536L152.478 27.2365H157.135Z" fill="#BF8F3C"/>
<path d="M2 50V82H34" stroke="#BF8F3C" stroke-width="4"/>
<path d="M375 34V2L343 2" stroke="#BF8F3C" stroke-width="4"/>
</g>
<defs>
<clipPath id="clip0_557_254">
<rect width="377" height="84" fill="white"/>
</clipPath>
</defs>
</svg>
