<svg xmlns="http://www.w3.org/2000/svg" width="305.444" height="49.941" viewBox="0 0 305.444 49.941"><defs><style>.a{fill:#f03;}.b{fill:#fff;}</style></defs><g transform="translate(0 0)"><path class="a" d="M87.879,65.177a.415.415,0,0,1-.086-.258c.03-3.311-1.966-5.441-5.1-5.441-3.473,0-5.716,2.681-5.716,6.807,0,3.173,1.421,5.8,1.421,9.051a13.4,13.4,0,0,1-3.6,9.028,11.446,11.446,0,0,1,6.742-2.52c4.3,0,6.686,2.022,10.26,2.4a10.471,10.471,0,0,0,7.826-2.74l0,0a.426.426,0,0,1,.569.014h0a.425.425,0,0,1,.041.572c-.177.224-.4.509-.487.621-2.661,3.46-5.167,5.264-9.012,5.264-5.375,0-7.866-3.273-12.128-3.273-2.135,0-4.169.887-6.473,2.244h0a.383.383,0,0,1-.489-.084l0,0a.384.384,0,0,1,.034-.527A11.742,11.742,0,0,0,75.471,78.5c0-3.642-3.335-7.461-3.335-11.679,0-4.948,4.541-8.767,10.357-8.767a11.772,11.772,0,0,1,8.921,3.861.436.436,0,0,1-.014.628l-2.916,2.682a.412.412,0,0,1-.6-.051Z" transform="translate(-60.627 -49.19)"/><path class="a" d="M24.971,0A24.971,24.971,0,1,0,49.942,24.971,25,25,0,0,0,24.971,0Zm0,48.051A23.081,23.081,0,1,1,48.051,24.971,23.111,23.111,0,0,1,24.971,48.051Z" transform="translate(0 0)"/><path class="a" d="M175.586,150.646a2.178,2.178,0,1,0,2.178,2.174A2.179,2.179,0,0,0,175.586,150.646Z" transform="translate(-146.925 -127.639)"/><path class="a" d="M152.348,120.186H149.19l-1.551-1.408a.871.871,0,0,0-.586-.226H143.7a.871.871,0,0,0-.586.226l-1.551,1.408H141.1v-.327a.218.218,0,0,0-.218-.218h-1.742a.218.218,0,0,0-.218.218v.327h-.511a.653.653,0,0,0-.653.653v9.583a.653.653,0,0,0,.653.653h13.939a.653.653,0,0,0,.653-.653V120.84A.653.653,0,0,0,152.348,120.186Zm-6.966,9.256a3.811,3.811,0,1,1,3.808-3.811A3.816,3.816,0,0,1,145.383,129.442Zm5.713-6.534a.544.544,0,1,1,.544-.545A.545.545,0,0,1,151.1,122.909Z" transform="translate(-116.718 -100.446)"/></g><g transform="translate(60.832 12.766)"><path class="b" d="M413.54,106.082v3.758H398.319V87.549h4.108v18.533H413.54Z" transform="translate(-398.319 -86.944)"/><path class="b" d="M518.379,138.374c-.637,3.28-3.375,5.35-7.419,5.35a7.772,7.772,0,0,1-8.184-8.12c0-5.254,3.63-8.439,8.025-8.439,3.917,0,7.547,2.484,7.547,8.184,0,.382-.032.732-.064,1.178H506.82a3.954,3.954,0,0,0,4.14,3.949c1.783,0,3.057-.732,3.5-2.1Zm-11.527-4.585h7.611a3.467,3.467,0,0,0-3.662-3.375A3.842,3.842,0,0,0,506.852,133.789Z" transform="translate(-486.823 -120.51)"/><path class="b" d="M619.952,86.071a2.514,2.514,0,0,1,2.516-2.484,2.46,2.46,0,0,1,2.452,2.484,2.5,2.5,0,0,1-2.452,2.452A2.552,2.552,0,0,1,619.952,86.071Zm.478,4.49h4.076v15.922H620.43Z" transform="translate(-586.104 -83.587)"/><path class="b" d="M665.4,138.311h3.917c.223,1.719,1.5,2.388,3.121,2.388,1.242,0,2.325-.478,2.325-1.624,0-1.21-1.083-1.719-2.8-2.165l-1.5-.382c-2.133-.51-4.554-1.369-4.554-4.49,0-3.184,2.8-4.872,5.955-4.872,4.3,0,6.273,2.261,6.5,4.872h-3.917c-.159-1.146-1.051-1.847-2.547-1.847-1.242,0-2.1.6-2.1,1.624,0,1.115,1.083,1.4,2.611,1.815l1.5.382c2.77.7,4.745,1.974,4.745,4.968,0,3.28-2.8,4.745-6.178,4.745C667.982,143.724,665.626,141.591,665.4,138.311Z" transform="translate(-624.614 -120.51)"/><path class="b" d="M761.8,116.815v-8.375h-3.407v-3.216h1.083c1.942,0,2.706-.7,2.706-2.42v-1.911h3.694v4.331h4.172v3.216h-4.172v7.833c0,.892.223,1.974,2.134,1.974a6.588,6.588,0,0,0,1.56-.223v3.089a12.348,12.348,0,0,1-2.8.35C762.309,121.465,761.8,118.567,761.8,116.815Z" transform="translate(-703.401 -98.251)"/><path class="b" d="M856.977,138.374c-.637,3.28-3.375,5.35-7.42,5.35a7.772,7.772,0,0,1-8.184-8.12c0-5.254,3.63-8.439,8.025-8.439,3.917,0,7.547,2.484,7.547,8.184,0,.382-.032.732-.064,1.178H845.418a3.955,3.955,0,0,0,4.14,3.949c1.783,0,3.057-.732,3.5-2.1Zm-11.527-4.585h7.611a3.467,3.467,0,0,0-3.662-3.375A3.842,3.842,0,0,0,845.45,133.789Z" transform="translate(-773.71 -120.51)"/><path class="b" d="M961.678,127.484H965.4l.35,1.879h.255a5.412,5.412,0,0,1,4.681-2.2c3.789,0,6.21,2.42,6.21,6.592v9.649h-4.076v-8.821c0-2.611-1.5-3.885-3.407-3.885-1.943,0-3.662,1.242-3.662,4.076v8.63h-4.076Z" transform="translate(-875.641 -120.51)"/><path class="b" d="M1076.77,138.311h3.917c.223,1.719,1.5,2.388,3.121,2.388,1.242,0,2.325-.478,2.325-1.624,0-1.21-1.083-1.719-2.8-2.165l-1.5-.382c-2.134-.51-4.554-1.369-4.554-4.49,0-3.184,2.8-4.872,5.955-4.872,4.3,0,6.273,2.261,6.5,4.872h-3.917c-.159-1.146-1.051-1.847-2.547-1.847-1.242,0-2.1.6-2.1,1.624,0,1.115,1.083,1.4,2.611,1.815l1.5.382c2.771.7,4.745,1.974,4.745,4.968,0,3.28-2.8,4.745-6.177,4.745C1079.35,143.724,1076.993,141.591,1076.77,138.311Z" transform="translate(-973.156 -120.51)"/><path class="b" d="M1174.55,135.508a8.028,8.028,0,0,1,8.279-8.343c3.694,0,7.2,1.974,7.706,6.146h-4.076a3.556,3.556,0,0,0-3.63-2.611c-2.42,0-4.2,1.974-4.2,4.808,0,2.8,1.656,4.681,4.267,4.681a3.463,3.463,0,0,0,3.6-2.293h4.108c-.541,3.566-3.566,5.827-7.706,5.827C1177.927,143.724,1174.55,140.317,1174.55,135.508Z" transform="translate(-1056.003 -120.51)"/><path class="b" d="M1309.035,98.424v9.649h-4.076V99.252c0-2.611-1.5-3.885-3.407-3.885-1.942,0-3.662,1.242-3.662,4.076v8.63h-4.076V85.464h4.076V94.03h.255a5.411,5.411,0,0,1,4.681-2.2C1306.615,91.833,1309.035,94.253,1309.035,98.424Z" transform="translate(-1157.052 -85.177)"/><path class="b" d="M1413.91,127.484h3.726l.35,1.879h.255a5.411,5.411,0,0,1,4.681-2.2c3.789,0,6.209,2.42,6.209,6.592v9.649h-4.076v-8.821c0-2.611-1.5-3.885-3.407-3.885-1.943,0-3.662,1.242-3.662,4.076v8.63h-4.076Z" transform="translate(-1258.807 -120.51)"/><path class="b" d="M1544.185,138.374c-.637,3.28-3.376,5.35-7.42,5.35a7.772,7.772,0,0,1-8.184-8.12c0-5.254,3.63-8.439,8.025-8.439,3.917,0,7.547,2.484,7.547,8.184,0,.382-.032.732-.064,1.178h-11.464a3.954,3.954,0,0,0,4.14,3.949c1.783,0,3.057-.732,3.5-2.1Zm-11.527-4.585h7.611a3.467,3.467,0,0,0-3.662-3.375A3.842,3.842,0,0,0,1532.657,133.789Z" transform="translate(-1355.965 -120.51)"/><path class="b" d="M1645.76,86.071a2.514,2.514,0,0,1,2.516-2.484,2.46,2.46,0,0,1,2.452,2.484,2.5,2.5,0,0,1-2.452,2.452A2.551,2.551,0,0,1,1645.76,86.071Zm.478,4.49h4.076v15.922h-4.076Z" transform="translate(-1455.248 -83.587)"/><path class="b" d="M1707.805,85.464v22.609h-3.312l-.35-1.879h-.286a5.712,5.712,0,0,1-4.745,2.2c-4.267,0-7.483-3.248-7.483-8.311,0-5.19,3.312-8.247,7.483-8.247a6.165,6.165,0,0,1,4.617,1.815V85.464h4.076Zm-4.076,14.616c0-2.8-1.56-4.713-3.98-4.713s-4.044,1.911-4.044,4.713c0,2.866,1.624,4.776,4.044,4.776S1703.729,102.946,1703.729,100.08Z" transform="translate(-1494.112 -85.177)"/><path class="b" d="M1828.365,138.374c-.637,3.28-3.375,5.35-7.419,5.35a7.773,7.773,0,0,1-8.184-8.12c0-5.254,3.63-8.439,8.025-8.439,3.917,0,7.547,2.484,7.547,8.184,0,.382-.032.732-.064,1.178h-11.464a3.955,3.955,0,0,0,4.14,3.949c1.783,0,3.057-.732,3.5-2.1Zm-11.527-4.585h7.61a3.467,3.467,0,0,0-3.662-3.375A3.842,3.842,0,0,0,1816.837,133.789Z" transform="translate(-1596.745 -120.51)"/><path class="b" d="M1933.07,127.484h3.693l.382,2.261h.255a4.785,4.785,0,0,1,4.745-2.579h1.146v4.076a10.417,10.417,0,0,0-1.72-.127c-3.5,0-4.426,2.579-4.426,4.872v7.42h-4.076V127.484Z" transform="translate(-1698.68 -120.51)"/></g></svg>