<?xml version="1.0" encoding="UTF-8" standalone="no"?>
<!DOCTYPE svg PUBLIC "-//W3C//DTD SVG 1.1//EN" "http://www.w3.org/Graphics/SVG/1.1/DTD/svg11.dtd">
<svg width="100%" height="100%" viewBox="0 0 4628 2489" version="1.1" xmlns="http://www.w3.org/2000/svg" xmlns:xlink="http://www.w3.org/1999/xlink" xml:space="preserve" xmlns:serif="http://www.serif.com/" style="fill-rule:evenodd;clip-rule:evenodd;stroke-linejoin:round;stroke-miterlimit:2;">
    <path d="M961.111,1311.11C967.039,1374.07 960.372,1422.22 941.111,1455.56C922.594,1488.15 890.739,1507.78 845.556,1514.44C855.928,1532.22 857.039,1552.22 848.889,1574.44C843.706,1598.15 851.111,1612.96 871.111,1618.89C794.072,1627.04 759.628,1592.22 767.778,1514.44C738.889,1534.44 704.444,1535.93 664.444,1518.89C738.517,1549.26 774.444,1604.82 772.222,1685.56C770,1715.93 757.406,1742.59 734.444,1765.56C752.222,1770.74 767.778,1779.63 781.111,1792.22C795.183,1804.82 806.667,1818.89 815.556,1834.44C825.183,1850 832.961,1865.56 838.889,1881.11C844.817,1897.41 848.889,1911.11 851.111,1922.22C857.778,1953.33 876.667,1970 907.778,1972.22C939.628,1972.22 955.556,1954.82 955.556,1920C972.594,1989.63 952.222,2032.59 894.444,2048.89C855.183,2244.44 744.817,2352.96 563.333,2374.44C530,2381.11 511.852,2400 508.889,2431.11C507.407,2440.74 508.518,2449.63 512.222,2457.78C516.667,2466.67 522.963,2475.18 531.111,2483.33C485.926,2474.44 460.371,2440.37 454.444,2381.11C387.037,2362.59 329.259,2334.82 281.111,2297.78C232.963,2261.48 194.444,2214.44 165.556,2156.67C138.889,2112.96 107.778,2095.56 72.222,2104.44C57.407,2108.15 46.296,2115.18 38.889,2125.56C31.482,2135.93 27.778,2148.89 27.778,2164.44C-1.111,2102.96 2.963,2056.67 40,2025.56C74.815,2006.29 104.074,2004.07 127.778,2018.89C119.629,1994.44 119.259,1970 126.667,1945.56C134.074,1921.11 149.629,1897.78 173.333,1875.56C220,1828.15 222.593,1773.71 181.111,1712.22C232.222,1750 263.333,1791.48 274.444,1836.67C285.556,1882.59 277.037,1930.74 248.889,1981.11C269.629,1953.71 305.556,1937.78 356.667,1933.33C394.444,1921.48 408.518,1897.78 398.889,1862.22C417.407,1887.41 420,1914.07 406.667,1942.22C429.629,1948.15 451.852,1957.78 473.333,1971.11C494.815,1984.44 514.074,2003.33 531.111,2027.78C547.407,2042.59 564.072,2051.11 581.111,2053.33C598.889,2056.29 615.556,2051.48 631.111,2038.89C622.961,2078.15 601.111,2100 565.556,2104.44C575.928,2119.26 580.372,2133.71 578.889,2147.78C578.15,2161.85 572.222,2177.41 561.111,2194.44C541.111,2231.48 539.629,2263.33 556.667,2290C502.593,2251.48 481.111,2202.96 492.222,2144.44C464.074,2179.26 432.222,2175.56 396.667,2133.33C444.815,2144.44 470,2128.15 472.222,2084.44C472.222,2036.29 450.371,2004.82 406.667,1990C318.518,1983.33 268.148,2010.37 255.556,2071.11C248.889,2122.22 252.222,2165.93 265.556,2202.22C278.889,2239.26 303.333,2269.63 338.889,2293.33C456.667,2349.63 551.482,2360.74 623.333,2326.67C695.928,2297.78 725.556,2258.52 712.222,2208.89C707.039,2197.04 700,2188.52 691.111,2183.33C682.961,2178.15 671.483,2176.29 656.667,2177.78C681.85,2167.41 702.961,2167.04 720,2176.67C737.778,2186.29 751.111,2204.07 760,2230C837.039,2098.89 833.706,1975.56 750,1860C737.406,1849.63 724.817,1838.89 712.222,1827.78C700.372,1816.67 688.15,1805.93 675.556,1795.56C674.072,1820.74 668.517,1840.74 658.889,1855.56C649.261,1870.37 633.706,1879.63 612.222,1883.33C638.15,1837.41 635.556,1803.33 604.444,1781.11C585.183,1777.41 565.556,1771.85 545.556,1764.44C526.296,1757.78 507.037,1749.26 487.778,1738.89C437.407,1715.18 401.852,1725.56 381.111,1770L381.111,1502.22C381.852,1406.67 382.222,1310.37 382.222,1213.33L382.222,924.444C382.963,829.628 383.333,741.111 383.333,658.889C382.593,645.556 380,635.183 375.556,627.778C371.111,619.628 365.556,614.072 358.889,611.111C352.963,607.406 346.296,605.556 338.889,605.556C331.482,604.817 324.444,604.817 317.778,605.556C349.629,579.628 381.482,553.333 413.333,526.666C445.185,499.999 477.037,473.703 508.889,447.777L506.667,607.778C537.778,612.961 559.628,626.294 572.222,647.778C585.556,668.517 590,696.667 585.556,732.222C581.85,716.667 575.556,705.556 566.667,698.889C558.517,692.222 547.407,688.889 533.333,688.889C526.667,690.372 520.741,694.072 515.556,700C511.111,705.928 508.148,715.183 506.667,727.778L502.222,1475.56L502.222,1611.11C504.444,1672.59 531.482,1704.44 583.333,1706.67C639.628,1710.37 672.961,1685.93 683.333,1633.33C686.294,1588.89 671.85,1561.48 640,1551.11C658.517,1573.33 661.111,1592.59 647.778,1608.89C626.294,1628.89 601.111,1627.41 572.222,1604.44C547.037,1582.96 544.074,1551.85 563.333,1511.11C574.444,1499.26 586.667,1489.26 600,1481.11C614.072,1472.22 630,1465.18 647.778,1460C719.628,1435.56 747.039,1393.71 730,1334.44C752.222,1344.07 767.039,1356.67 774.444,1372.22C781.85,1387.78 783.333,1405.18 778.889,1424.44C790.739,1408.89 804.444,1397.04 820,1388.89C836.294,1380 855.928,1376.29 878.889,1377.78C904.817,1376.29 924.072,1370.37 936.667,1360C950,1348.89 958.15,1332.59 961.111,1311.11Z" style="fill:#fff;fill-rule:nonzero;"/>
    <path d="M1507.25,1514.44C1479.84,1472.96 1443.17,1462.59 1397.25,1483.33C1352.06,1515.18 1301.32,1533.71 1245.03,1538.89C1204.28,1581.11 1159.84,1601.11 1111.69,1598.89C1142.06,1564.07 1141.69,1534.82 1110.58,1511.11C1097.99,1507.41 1085.77,1503.33 1073.92,1498.89C1062.06,1494.44 1049.84,1489.26 1037.25,1483.33C997.989,1474.44 973.172,1484.82 962.806,1514.44L962.806,744.444C981.322,778.517 1017.62,790 1071.69,778.889C1090.95,770 1110.95,762.594 1131.69,756.667C1152.43,750.739 1173.17,747.039 1193.92,745.556C1266.51,735.183 1299.47,698.517 1292.81,635.556C1326.14,677.039 1329.84,716.667 1303.92,754.444C1330.58,760.372 1355.77,767.406 1379.47,775.556C1430.58,800 1473.54,788.517 1508.36,741.111L1508.36,973.333C1505.39,1009.63 1526.14,1031.85 1570.58,1040C1498.73,1084.44 1427.25,1128.15 1356.14,1171.11C1285.03,1214.07 1213.54,1257.78 1141.69,1302.22C1123.17,1316.29 1109.84,1329.63 1101.69,1342.22C1093.54,1354.82 1089.84,1367.41 1090.58,1380C1099.47,1436.29 1155.39,1462.22 1258.36,1457.78C1332.43,1444.44 1372.81,1410 1379.47,1354.44C1381.69,1295.18 1345.39,1273.33 1270.58,1288.89C1310.58,1265.18 1349.84,1241.48 1388.36,1217.78C1427.62,1194.07 1467.25,1170 1507.25,1145.56L1507.25,1514.44ZM1379.47,1083.33L1379.47,918.889C1369.1,834.444 1312.43,794.444 1209.47,798.889C1249.47,857.406 1244.28,907.406 1193.92,948.889C1204.28,896.294 1186.88,868.517 1141.69,865.556C1106.14,872.961 1089.1,900.739 1090.58,948.889L1090.58,1268.89L1245.03,1170C1232.43,1163.33 1221.69,1155.93 1212.81,1147.78C1203.92,1138.89 1197.62,1129.26 1193.92,1118.89C1181.32,1066.29 1196.14,1025.93 1238.36,997.778C1222.06,1026.67 1220.58,1055.18 1233.92,1083.33C1247.25,1101.11 1263.54,1111.48 1282.81,1114.44C1302.81,1117.41 1325.77,1113.71 1351.69,1103.33L1379.47,1083.33Z" style="fill:#fff;fill-rule:nonzero;"/>
    <path d="M2002.27,1508.89C1965.24,1541.48 1969.68,1571.11 2015.61,1597.78C1974.13,1611.11 1937.46,1598.15 1905.61,1558.89C1885.61,1541.85 1866.72,1544.44 1848.94,1566.67C1844.49,1543.71 1855.24,1526.29 1881.16,1514.44C1850.79,1513.71 1822.64,1506.67 1796.72,1493.33C1755.98,1467.41 1725.24,1472.59 1704.49,1508.89C1697.83,1459.26 1710.42,1430 1742.27,1421.11C1728.2,1417.41 1715.61,1411.48 1704.49,1403.33C1693.38,1395.18 1684.49,1384.07 1677.83,1370C1672.64,1341.11 1655.24,1324.82 1625.61,1321.11C1633.02,1293.71 1656.72,1280.37 1696.72,1281.11L1696.72,907.778C1698.94,828.517 1676.72,773.706 1630.05,743.333C1748.57,732.222 1810.05,785.556 1814.49,903.333L1814.49,1368.89C1830.05,1303.71 1870.79,1281.11 1936.72,1301.11C1895.98,1312.22 1873.38,1334.82 1868.94,1368.89C1867.46,1411.11 1893.02,1437.04 1945.61,1446.67C2015.98,1450.37 2068.94,1435.56 2104.49,1402.22C2105.24,1401.48 2104.49,1406.29 2102.27,1416.67C2100.05,1426.29 2094.87,1437.78 2086.72,1451.11C2079.31,1463.71 2068.57,1475.93 2054.49,1487.78C2041.16,1498.89 2023.76,1505.93 2002.27,1508.89ZM1814.49,529.999C1814.49,548.518 1815.24,565.183 1816.72,580C1818.2,594.072 1822.27,605.928 1828.94,615.556C1835.61,624.444 1845.61,630.372 1858.94,633.333C1873.02,636.294 1892.27,635.183 1916.72,630C1890.79,665.556 1864.13,688.517 1836.72,698.889C1810.05,708.517 1785.61,710.372 1763.38,704.444C1741.91,698.517 1724.13,687.039 1710.05,670C1695.98,652.961 1688.94,634.817 1688.94,615.556C1684.49,596.294 1673.76,584.072 1656.72,578.889C1639.68,572.961 1616.35,572.594 1586.72,577.778C1624.49,554.814 1662.27,532.222 1700.05,509.999C1738.57,487.037 1776.72,464.073 1814.49,441.111L1814.49,529.999Z" style="fill:#fff;fill-rule:nonzero;"/>
    <path d="M2623.86,529.999C2669.04,567.778 2715.71,565.928 2763.86,524.444C2793.48,505.926 2821.63,496.296 2848.3,495.555C2874.97,494.814 2901.63,504.073 2928.3,523.333C2966.08,534.444 2983.48,519.999 2980.52,479.999C2975.33,462.962 2962.37,452.222 2941.63,447.777C3005.33,443.333 3032,468.888 3021.63,524.444C3016.44,545.926 3002.37,559.628 2979.41,565.556C3023.11,559.628 3048.67,569.628 3056.08,595.556C3074.59,622.961 3098.67,627.039 3128.3,607.778C3111.26,655.183 3073.11,677.778 3013.86,675.556C3001.26,671.85 2989.78,666.294 2979.41,658.889C2969.04,651.483 2960.52,641.483 2953.86,628.889C2945.71,643.706 2935.71,654.072 2923.86,660C2912,665.928 2898.67,668.15 2883.86,666.667C2856.44,660.739 2842.74,641.85 2842.74,610C2861.26,626.294 2878.67,624.072 2894.97,603.333C2894.97,577.406 2883.11,565.556 2859.41,567.778C2821.63,570 2793.86,581.483 2776.08,602.222C2759.04,622.961 2752.37,654.444 2756.08,696.667C2773.11,748.517 2814.22,765.928 2879.41,748.889C2859.41,801.483 2818.3,818.15 2756.08,798.889L2756.08,1521.11C2739.78,1487.04 2702.37,1475.56 2643.86,1486.67C2601.63,1505.18 2558.67,1515.93 2514.97,1518.89C2478.67,1524.82 2451.63,1537.04 2433.86,1555.56C2416.82,1574.07 2410.15,1600 2413.86,1633.33C2377.56,1591.85 2373.11,1551.11 2400.52,1511.11C2387.93,1507.41 2374.97,1504.07 2361.63,1501.11C2348.3,1497.41 2335.33,1492.96 2322.74,1487.78C2270.15,1463.33 2225.33,1476.29 2188.3,1526.67L2188.3,1281.11C2190.52,1246.29 2168.67,1223.33 2122.74,1212.22C2197.56,1167.04 2271.63,1121.85 2344.97,1076.67C2419.04,1031.48 2493.48,985.928 2568.3,940C2601.63,914.817 2620.15,890.739 2623.86,867.778L2623.86,529.999ZM2350.52,1146.67L2322.74,1165.56L2322.74,1340C2332.37,1425.93 2391.26,1467.78 2499.41,1465.56C2457.93,1401.85 2463.11,1349.26 2514.97,1307.78C2503.86,1363.33 2521.63,1392.22 2568.3,1394.44C2587.56,1390 2602,1381.11 2611.63,1367.78C2621.26,1353.71 2625.33,1333.71 2623.86,1307.78L2623.86,975.556L2460.52,1078.89C2476.82,1086.29 2489.41,1094.07 2498.3,1102.22C2507.19,1109.63 2512.74,1118.52 2514.97,1128.89C2529.04,1183.71 2514.22,1226.67 2470.52,1257.78C2486.82,1227.41 2487.56,1196.67 2472.74,1165.56C2446.08,1130 2405.33,1123.71 2350.52,1146.67Z" style="fill:#fff;fill-rule:nonzero;"/>
    <path d="M3423.48,1514.44C3396.07,1472.96 3359.41,1462.59 3313.48,1483.33C3268.29,1515.18 3217.56,1533.71 3161.26,1538.89C3120.52,1581.11 3076.07,1601.11 3027.93,1598.89C3058.29,1564.07 3057.93,1534.82 3026.82,1511.11C3014.22,1507.41 3002,1503.33 2990.15,1498.89C2978.29,1494.44 2966.07,1489.26 2953.48,1483.33C2914.22,1474.44 2889.41,1484.82 2879.04,1514.44L2879.04,744.444C2897.56,778.517 2933.85,790 2987.93,778.889C3007.18,770 3027.18,762.594 3047.93,756.667C3068.67,750.739 3089.41,747.039 3110.15,745.556C3182.74,735.183 3215.71,698.517 3209.04,635.556C3242.37,677.039 3246.07,716.667 3220.15,754.444C3246.82,760.372 3272,767.406 3295.71,775.556C3346.82,800 3389.78,788.517 3424.59,741.111L3424.59,973.333C3421.63,1009.63 3442.37,1031.85 3486.82,1040C3414.96,1084.44 3343.48,1128.15 3272.37,1171.11C3201.26,1214.07 3129.78,1257.78 3057.93,1302.22C3039.41,1316.29 3026.07,1329.63 3017.93,1342.22C3009.78,1354.82 3006.07,1367.41 3006.82,1380C3015.71,1436.29 3071.63,1462.22 3174.59,1457.78C3248.67,1444.44 3289.04,1410 3295.71,1354.44C3297.93,1295.18 3261.63,1273.33 3186.82,1288.89C3226.82,1265.18 3266.07,1241.48 3304.59,1217.78C3343.85,1194.07 3383.48,1170 3423.48,1145.56L3423.48,1514.44ZM3295.71,1083.33L3295.71,918.889C3285.33,834.444 3228.67,794.444 3125.71,798.889C3165.71,857.406 3160.52,907.406 3110.15,948.889C3120.52,896.294 3103.11,868.517 3057.93,865.556C3022.37,872.961 3005.33,900.739 3006.82,948.889L3006.82,1268.89L3161.26,1170C3148.67,1163.33 3137.93,1155.93 3129.04,1147.78C3120.15,1138.89 3113.85,1129.26 3110.15,1118.89C3097.56,1066.29 3112.37,1025.93 3154.59,997.778C3138.29,1026.67 3136.82,1055.18 3150.15,1083.33C3163.48,1101.11 3179.78,1111.48 3199.04,1114.44C3219.04,1117.41 3242,1113.71 3267.93,1103.33L3295.71,1083.33Z" style="fill:#fff;fill-rule:nonzero;"/>
    <path d="M3642.95,737.778C3664.43,788.889 3700.73,802.594 3751.84,778.889C3794.06,755.928 3839.25,741.483 3887.39,735.556C3922.21,700.739 3917.39,671.111 3872.95,646.667C3915.17,631.111 3951.84,643.333 3982.95,683.333C3994.81,691.483 4005.17,695.183 4014.06,694.444C4022.95,693.706 4031.84,687.778 4040.73,676.667C4047.39,698.889 4037.39,715.928 4010.73,727.778C4025.54,728.517 4039.99,731.111 4054.06,735.556C4068.88,739.261 4082.58,744.444 4095.17,751.111C4135.92,775.556 4166.66,770.372 4187.39,735.556C4195.54,784.444 4183.32,814.444 4150.73,825.556C4164.81,829.261 4177.03,835.183 4187.39,843.333C4198.51,850.739 4207.39,861.85 4214.06,876.667C4222.21,907.039 4240.36,923.333 4268.51,925.556C4261.84,954.444 4238.51,967.778 4198.51,965.556L4198.51,1345.56C4193.32,1426.29 4215.17,1482.22 4264.06,1513.33C4143.32,1523.71 4080.73,1468.89 4076.28,1348.89L4076.28,878.889C4060.73,943.333 4019.62,965.183 3952.95,944.444C3993.69,934.817 4016.28,912.961 4020.73,878.889C4022.95,834.444 3997.77,807.778 3945.17,798.889C3870.36,795.183 3815.92,809.628 3781.84,842.222L3781.84,1370C3784.06,1449.26 3814.06,1490.37 3871.84,1493.33C3857.77,1487.41 3850.73,1475.93 3850.73,1458.89C3854.43,1419.63 3876.66,1405.93 3917.39,1417.78C3921.84,1385.93 3943.69,1373.33 3982.95,1380C3950.36,1385.93 3940.36,1405.93 3952.95,1440C3961.1,1466.67 3960.36,1491.85 3950.73,1515.56C3917.39,1563.71 3867.03,1564.44 3799.62,1517.78C3737.39,1472.59 3685.17,1471.11 3642.95,1513.33L3642.95,1272.22C3622.21,1210 3575.54,1196.29 3502.95,1231.11C3529.62,1157.04 3576.28,1125.56 3642.95,1136.67L3642.95,737.778Z" style="fill:#fff;fill-rule:nonzero;"/>
</svg>
