<?xml version="1.0" encoding="UTF-8" standalone="no"?>
<!DOCTYPE svg PUBLIC "-//W3C//DTD SVG 1.1//EN" "http://www.w3.org/Graphics/SVG/1.1/DTD/svg11.dtd">
<svg width="100%" height="100%" viewBox="0 0 1024 1024" version="1.1" xmlns="http://www.w3.org/2000/svg" xmlns:xlink="http://www.w3.org/1999/xlink" xml:space="preserve" xmlns:serif="http://www.serif.com/" style="fill-rule:evenodd;clip-rule:evenodd;stroke-linecap:round;stroke-linejoin:round;">
    <ellipse cx="512" cy="512" rx="512" ry="500"/>
    <path d="M532.529,327.816C527.734,353.322 523.907,367.593 518.176,384.831L539.495,396.234L560.814,443.334M560.814,443.334C647.552,392.021 688.584,374.606 746.734,365.991M560.814,443.334C537.107,460.134 525.996,471.135 509.748,493.408C553.638,482.521 571.068,488.353 594.032,512.248C564.637,541.457 551.14,559.201 534.042,594.053C543.696,593.711 548.282,594.301 555.36,596.408C536.251,722.947 558.875,649.896 524.089,765.424M746.734,365.991L776.977,257.401M746.734,365.991C769.797,365.39 782.272,366.854 803.253,374.419C794.963,385.356 792.912,385.091 789.371,396.234C821.055,413.057 830.476,420.939 841.429,433.914C831.273,444.944 827.153,451.637 821.597,464.157C830.474,480.775 834.817,489.996 841.429,506.298C842.24,508.863 841.661,510.648 839.446,514.231C869.649,660.422 857.812,819.699 833.496,961.926M776.977,257.401C650.899,281.934 584.884,311.507 509.748,335.252C488.386,342.004 442.662,390.483 263.784,367.255M776.977,257.401C827.268,247.614 887.117,238.63 960.913,231.137M960.913,231.137C817.631,245.685 775.985,231.137 731.86,209.819C705.088,152.803 722.44,85.872 833.496,12C573.209,47.201 509.748,168.173 489.917,271.296C457.888,308.737 386.868,378.194 263.784,367.255M960.913,231.137C928.603,289.922 895.469,286.665 755.658,337.235M225.663,361.529C361.36,391.813 430.939,391.076 523.253,367.974M225.663,361.529C239,363.789 251.696,365.686 263.784,367.255M225.663,361.529C238.889,364.299 251.592,366.172 263.784,367.255M500.328,767.578C448.416,725.95 420.277,700.081 371.919,649.085C361.508,633.715 371.919,614.875 361.508,590.086C347.89,564.635 339.028,550.467 317.879,525.634C312.694,508.667 309.767,497.887 304.493,475.56C293.785,455.943 289.872,445.113 285.157,425.981C279.704,414.082 262.847,417.553 262.847,428.956C258.773,451.443 259.579,461.69 266.813,475.56C274.702,503.992 276.372,517.42 276.233,538.524C261.411,548.957 254.114,550.797 242.024,550.423C235.151,549.59 212.347,538.425 196.907,529.6M500.328,767.578C503.459,768.09 506.431,768.665 509.252,769.303M500.328,767.578C534.38,764.984 553.3,762.112 586.595,753.2C589.272,735.456 588.674,724.847 586.595,705.604C593.074,697.626 597.619,693.481 607.418,686.764C605.105,682.331 603.329,679.836 598.494,675.361C605.264,658.006 609.644,648.434 618.821,631.732C615.236,632.074 613.179,632.388 609.401,633.219C616.116,604.203 620.985,588.05 630.72,559.347L630.951,558.665C635.431,545.441 640.526,530.399 662.946,519.189M447.279,830.542C395.523,780.785 365.05,753.583 307.468,706.596C297.737,687.882 290.426,678.392 272.763,663.958C243.64,640.161 200.65,616.363 187.983,598.515C166.169,567.776 115.598,521.172 114.111,507.786L111.948,494.895M447.279,830.542C444.8,834.013 442.321,840.954 445.792,844.92C449.103,847.625 452.218,850.142 455.212,852.514M447.279,830.542C463.265,845.912 473.75,842.995 501.934,823.106M564.285,887.558C564.228,868.335 562.301,841.945 555.36,813.686C551.135,796.483 545.423,783.356 527.596,775.254M564.285,887.558C550.898,897.969 531.067,899.133 509.252,887.558C506.103,885.887 498.182,881.681 495.37,880.121M564.285,887.558C564.735,961.867 531.03,1011.68 502.275,1012M502.275,1012C481.947,1012 457.027,958.951 455.212,932.674C453.944,914.33 452.286,897.512 455.212,852.514M502.275,1012C691.665,993.656 743.19,967.875 778.427,901.935C805.157,851.917 809.971,755.299 807.183,649.085M196.907,529.6C196.907,513.239 195.825,504.871 194.428,485.971C191.454,464.157 179.688,468.619 180.051,476.056C181.042,496.383 179.875,505.665 178.067,516.932M196.907,529.6C189.968,525.634 185.008,521.656 178.067,516.932M178.067,516.932L171.126,512.248M171.126,512.248L170.135,476.056C166.664,441.351 149.312,445.317 149.312,454.241L151.791,497.87M171.126,512.248L151.791,497.87M151.791,497.87L137.413,485.971C134.934,472.585 134.934,455.728 129.48,443.334C129.48,422.015 125.018,397.226 111.948,395.738C98.804,394.242 103.204,419.04 101.716,433.914L102.715,439.863M111.948,494.895C97.254,463.661 83.684,445.133 67.507,428.956C56.6,418.049 73.457,411.108 86.347,422.015L102.715,439.863M111.948,494.895L102.715,439.863M455.212,852.514C467.387,862.164 471.619,866.276 484.959,874.172M455.212,852.514C473.725,855.791 491.604,842.931 501.934,823.106M509.252,769.303C513.566,770.28 517.525,771.403 521.151,772.677M509.252,769.303C513.342,788.575 509.861,807.891 501.934,823.106M521.151,772.677C531.563,804.266 508.845,874.172 484.959,874.172M521.151,772.677C523.429,773.477 525.576,774.336 527.596,775.254M484.959,874.172C487.924,875.926 492.037,878.271 495.37,880.121M527.596,775.254C545.94,807.24 520.655,881.608 495.37,880.121" style="fill:none;fill-rule:nonzero;stroke:white;stroke-width:16px;"/>
    <path d="M447.279,830.542C395.523,780.785 365.05,753.583 307.468,706.596C297.737,687.882 290.426,678.392 272.763,663.958C243.64,640.161 200.65,616.363 187.983,598.515C166.169,567.776 115.598,521.172 114.111,507.786L111.948,494.895M447.279,830.542C444.8,834.013 442.321,840.954 445.792,844.92C449.103,847.625 452.218,850.142 455.212,852.514M447.279,830.542C463.265,845.912 473.75,842.995 501.934,823.106M564.285,887.558C550.898,897.969 531.067,899.133 509.252,887.558C506.103,885.887 498.182,881.681 495.37,880.121M564.285,887.558C564.735,961.867 531.03,1011.68 502.275,1012M564.285,887.558C564.276,884.583 564.222,881.436 564.112,878.138M502.275,1012C481.947,1012 457.027,958.951 455.212,932.674C453.944,914.33 452.286,897.512 455.212,852.514M502.275,1012C585.393,1003.95 641.958,994.466 682.245,980.784M196.907,529.6C212.347,538.425 235.151,549.59 242.024,550.423C254.114,550.797 261.411,548.957 276.233,538.525C276.372,517.42 274.702,503.992 266.813,475.56C259.579,461.69 258.773,451.443 262.847,428.956C262.847,417.553 279.704,414.082 285.157,425.981C289.872,445.113 293.785,455.943 304.493,475.56C309.767,497.888 312.694,508.667 317.879,525.634C339.028,550.467 347.89,564.635 361.508,590.086C370.72,612.02 363.63,629.296 369.087,643.631M196.907,529.6C196.907,513.239 195.825,504.871 194.428,485.971C191.454,464.157 179.688,468.619 180.051,476.056C181.042,496.383 179.875,505.665 178.067,516.932M196.907,529.6C189.968,525.634 185.008,521.656 178.067,516.932M178.067,516.932L171.126,512.248M171.126,512.248L170.135,476.056C166.664,441.351 149.312,445.317 149.312,454.241L151.791,497.87M171.126,512.248L151.791,497.87M151.791,497.87L137.413,485.971C134.934,472.585 134.934,455.728 129.48,443.334C129.48,422.015 125.018,397.226 111.948,395.738C98.804,394.242 103.204,419.04 101.716,433.914L102.715,439.863M111.948,494.895C97.254,463.661 83.684,445.133 67.507,428.956C56.6,418.049 73.457,411.108 86.347,422.015L102.715,439.863M111.948,494.895L102.715,439.863M455.212,852.514C467.387,862.164 471.619,866.276 484.959,874.172M455.212,852.514C473.725,855.791 491.604,842.931 501.934,823.106M484.959,874.172C487.924,875.926 492.037,878.271 495.37,880.121M484.959,874.172C496.766,874.172 508.289,857.088 515.665,835.996M495.37,880.121C507.031,880.807 518.691,865.361 526.072,845.38M501.934,823.106C502.19,822.614 502.441,822.118 502.688,821.618" style="fill:none;fill-rule:nonzero;stroke:rgb(142,27,35);stroke-width:20px;"/>
</svg>
