<svg xmlns="http://www.w3.org/2000/svg" fill="#ffffff" viewBox="0 0 24 24" width="24px" height="24px"><path d="M 14.40625 0.81640625 C 13.717879 1.5909084 12.89753 2.6571336 12.095703 3.9628906 L 1.0625 3.9628906 L 1.0625 4.9628906 L 1.0625 20.957031 L 13.136719 20.957031 C 13.527882 21.984812 13.979605 22.80168 14.318359 23.318359 L 15.990234 22.222656 C 15.790515 21.918037 15.540878 21.475905 15.296875 20.957031 L 23.001953 20.957031 L 23.001953 3.9628906 L 14.476562 3.9628906 C 14.978441 3.2483943 15.470625 2.6302677 15.902344 2.1445312 L 14.40625 0.81640625 z M 3.0625 5.9628906 L 11.005859 5.9628906 C 10.9391 6.1021939 10.865921 6.2215548 10.800781 6.3652344 C 9.6360962 8.9313124 9.1762214 11.249463 8.9824219 12.871094 L 8.8496094 13.988281 L 12.722656 13.988281 C 12.576762 14.572328 12.446658 15.236054 12.386719 15.992188 C 12.277308 15.991054 12.173733 15.997684 12.0625 15.994141 C 9.481228 15.91148 7.4656464 15.198862 6.2597656 14.664062 L 5.4492188 16.492188 C 6.8093379 17.095388 9.0833188 17.898847 11.998047 17.992188 C 12.145496 17.996884 12.283136 17.989266 12.427734 17.990234 C 12.442422 18.13201 12.442169 18.259068 12.462891 18.40625 C 12.489718 18.596262 12.526111 18.775649 12.560547 18.957031 L 3.0625 18.957031 L 3.0625 5.9628906 z M 13.248047 5.9628906 L 21.001953 5.9628906 L 21.001953 18.957031 L 14.599609 18.957031 C 14.538569 18.691135 14.484331 18.417146 14.443359 18.126953 C 14.432429 18.049319 14.428866 17.976892 14.419922 17.900391 C 16.715238 17.652746 18.504996 16.999057 19.587891 16.525391 L 18.787109 14.693359 C 17.858871 15.099379 16.340663 15.649621 14.40625 15.884766 C 14.506073 14.76779 14.75323 13.860178 14.945312 13.328125 L 15.427734 11.988281 L 11.179688 11.988281 C 11.413593 10.629792 11.788717 9.0296335 12.623047 7.1914062 C 12.821845 6.7529137 13.035311 6.3567657 13.248047 5.9628906 z M 16.013672 8.0019531 L 16.013672 10.890625 L 18.013672 10.890625 L 18.013672 8.0019531 L 16.013672 8.0019531 z M 6.0097656 8.125 L 6.0097656 10.957031 L 8.0097656 10.957031 L 8.0097656 8.125 L 6.0097656 8.125 z"/></svg>
